<?xml version="1.0" encoding="UTF-8" standalone="no"?>
<svg
   xmlns:dc="http://purl.org/dc/elements/1.1/"
   xmlns:cc="http://creativecommons.org/ns#"
   xmlns:rdf="http://www.w3.org/1999/02/22-rdf-syntax-ns#"
   xmlns:svg="http://www.w3.org/2000/svg"
   xmlns="http://www.w3.org/2000/svg"
   xmlns:sodipodi="http://sodipodi.sourceforge.net/DTD/sodipodi-0.dtd"
   xmlns:inkscape="http://www.inkscape.org/namespaces/inkscape"
   id="svg5138"
   version="1.1"
   viewBox="0 0 19.322607 16.810055"
   height="16.810055mm"
   width="19.322607mm"
   sodipodi:docname="crown.svg"
   inkscape:version="0.92.5 (2060ec1f9f, 2020-04-08)">
  <sodipodi:namedview
     pagecolor="#ffffff"
     bordercolor="#666666"
     borderopacity="1"
     objecttolerance="10"
     gridtolerance="10"
     guidetolerance="10"
     inkscape:pageopacity="0"
     inkscape:pageshadow="2"
     inkscape:window-width="1600"
     inkscape:window-height="835"
     id="namedview1558"
     showgrid="false"
     inkscape:zoom="9.9095021"
     inkscape:cx="0.24072017"
     inkscape:cy="13.657729"
     inkscape:window-x="0"
     inkscape:window-y="0"
     inkscape:window-maximized="1"
     inkscape:current-layer="layer1" />
  <defs
     id="defs5132" />
  <metadata
     id="metadata5135">
    <rdf:RDF>
      <cc:Work
         rdf:about="">
        <dc:format>image/svg+xml</dc:format>
        <dc:type
           rdf:resource="http://purl.org/dc/dcmitype/StillImage" />
        <dc:title />
      </cc:Work>
    </rdf:RDF>
  </metadata>
  <g
     transform="translate(10.490421,32.25149)"
     id="layer1">
    <path
       style="fill:#c28f20;fill-opacity:1;stroke-width:0.38558599"
       d="M 36.199219,0.01367188 V 0.0546875 C 34.918992,0.24226724 34.125,1.2547723 34.125,2.2246094 c 0,0.9919402 0.957057,2.1042689 2.074219,2.2714844 v 0.03125 c 0.05619,0.00155 0.110325,-0.012156 0.166015,-0.015625 0.05569,0.00347 0.109824,0.017178 0.166016,0.015625 v -0.03125 c 1.117161,-0.1672162 2.074219,-1.2795462 2.074219,-2.2714844 0,-0.9698395 -0.793992,-1.98233865 -2.074219,-2.1699219 V 0.01367188 c -0.05816,0.001626 -0.109586,0.01464711 -0.166016,0.01953124 -0.05643,-0.0048843 -0.107857,-0.01790503 -0.166015,-0.01953124 z m 0,5.54882812 v 0.041016 c -2.38091,0.24567 -4.371941,1.9633476 -4.400391,4.810546 -0.02421,2.422217 2.344813,4.572953 4.400391,4.814454 v 0.04687 c 0.05408,-7.75e-4 0.111322,-0.01978 0.166015,-0.02344 0.05469,0.0037 0.111938,0.02266 0.166016,0.02344 v -0.04687 C 38.586828,14.987013 40.955852,12.83628 40.931641,10.414062 40.903191,7.5668644 38.912159,5.8491894 36.53125,5.6035156 V 5.5625 C 36.47469,5.56497 36.421419,5.579865 36.365234,5.583984 36.309054,5.579864 36.255776,5.564971 36.199219,5.5625 Z m -5.863281,3.3222656 c -4.139233,0.074848 -9.134892,1.5399684 -11.636719,3.5000004 l -1.646485,1.314453 c -0.285785,0.22854 -0.672849,0.284582 -1.011718,0.146484 L 13.177734,12.679688 C 10.628501,11.636841 8.3287078,11.479207 6.4003906,12.066406 4.4720733,12.653608 2.8684904,13.97948 1.6992188,16.113281 0.37971746,18.521138 0,20.144625 0,23.560547 c -0.00293,4.120775 1.3080082,7.962355 4.8105469,13.498047 l 0.5351562,-0.591797 c -0.1282342,-2.828056 1.659495,-2.711579 3.171875,-4.152344 8.2092609,-5.699636 -5.0202202,-8.64293 -4.7382812,-15.308594 1.2692519,-1.570337 3.142537,-2.448476 5.234375,-2.443359 1.3934051,0.0036 2.8805911,0.379299 4.4140621,1.115234 0.685287,0.328868 1.195637,0.512605 1.595704,1.121094 -1.193255,3.607182 -1.581636,6.188395 0.46289,13.203125 2.804064,-0.670975 5.998274,8.868 6.621094,6.669922 1.089993,-3.84684 -1.232854,-10.852155 -0.21875,-12.705078 -3.361376,-0.419455 -5.306847,-3.443289 -3.960938,-5.488281 0.549013,-1.523365 1.429238,-2.757987 2.697266,-3.695313 2.670105,-1.525126 5.882736,-2.602047 10.392578,-1.373047 -1.186873,-1.808249 -0.833806,-3.4466143 -0.68164,-4.5253904 z m 12.058593,0 c 0.152166,1.0787755 0.505233,2.7171404 -0.68164,4.5253904 4.509841,-1.229 7.722473,-0.152079 10.392578,1.373047 1.268028,0.937327 2.148252,2.171948 2.697265,3.695313 1.345909,2.044992 -0.599561,5.068825 -3.960937,5.488281 1.014102,1.852921 -1.308743,8.858237 -0.21875,12.705078 0.62282,2.198079 3.81703,-7.340898 6.621094,-6.669922 2.044526,-7.014731 1.656145,-9.595944 0.46289,-13.203125 0.400067,-0.608489 0.910416,-0.792237 1.595703,-1.121094 1.533471,-0.735934 3.020658,-1.111636 4.414063,-1.115234 2.091838,-0.0051 3.965123,0.873022 5.234375,2.443359 0.281939,6.665662 -12.947542,9.608957 -4.738281,15.308594 1.51238,1.440764 3.30011,1.324286 3.171875,4.152344 l 0.535156,0.591797 c 3.502539,-5.535693 4.813477,-9.377274 4.810547,-13.498047 0,-3.415922 -0.379718,-5.039412 -1.699219,-7.447266 -1.169272,-2.133804 -2.772855,-3.459672 -4.701172,-4.046875 -1.928317,-0.587198 -4.228111,-0.429566 -6.777344,0.613282 l -2.863281,1.166015 c -0.338869,0.138104 -0.725933,0.08206 -1.011719,-0.146484 L 54.03125,12.384766 C 51.529423,10.424733 46.533764,8.9596003 42.394531,8.8847656 Z m -8.505859,7.3886724 c -0.212529,3.951908 -1.309834,6.129032 -3.191406,7.371093 1.604612,0.649781 3.129797,6.675779 3.986328,8.25 1.164072,-0.438739 2.200421,-0.433448 3.363281,0 0.856531,-1.574218 2.381716,-7.60022 3.986328,-8.25 -1.881572,-1.242062 -2.978876,-3.419183 -3.191406,-7.371093 -1.10434,0.757751 -1.670028,0.595582 -2.476563,0.675781 -0.806534,-0.0802 -1.372222,0.08198 -2.476562,-0.675781 z m 2.476562,17.585937 c -1.332206,10e-7 -3.167211,2.410655 -3.986328,3.882813 -1.47e-4,0.03214 -0.0034,0.06419 -0.0098,0.0957 0.786802,0.280989 1.369021,1.212066 1.36914,2.330078 -5e-5,0.468247 -0.1055,0.900763 -0.28125,1.271484 0.95247,-0.484072 2.005797,-0.736362 3.074219,-0.736328 0.916621,9.76e-4 1.823541,0.187675 2.666016,0.548828 -0.126407,-0.327832 -0.205037,-0.691775 -0.205078,-1.083984 1.18e-4,-1.118011 0.582338,-2.049071 1.36914,-2.330078 -0.0064,-0.03152 -0.0096,-0.06358 -0.0098,-0.0957 -0.819115,-1.472159 -2.475731,-3.882814 -3.986328,-3.882813 z m -8.833984,1.242187 c -1.999061,0.638951 -3.497251,2.355533 -4.228516,3.875 0.789405,0.279448 1.373618,1.213435 1.373047,2.333985 -1.42e-4,1.338883 -0.829664,2.424517 -1.853515,2.425781 -1.024614,1.45e-4 -1.855327,-1.085902 -1.855469,-2.425781 -4.51e-4,-0.885992 0.366193,-1.654199 0.908203,-2.078125 -0.0011,-0.0143 -0.0017,-0.02863 -0.002,-0.04297 -1.09104,-1.038208 -3.221463,-2.164948 -4.560547,-1.804687 -1.49352,0.853948 -2.392706,2.433176 -2.839844,3.802734 0.956584,0.09695 1.712755,1.130434 1.712891,2.40625 -1.42e-4,1.33988 -0.830855,2.425927 -1.855469,2.425781 -1.024614,1.46e-4 -1.855327,-1.085901 -1.855469,-2.425781 9.7e-5,-0.90197 0.380817,-1.679657 0.939453,-2.097656 -3.5e-5,-0.0039 -3.5e-5,-0.0078 0,-0.01172 -1.181645,-2.039401 -3.7670743,-4.386041 -5.7832026,-4.595703 -0.5986008,0.02338 -1.2850437,0.08457 -1.6289063,0.285156 -0.1738025,0.101373 -0.438683,0.340384 -0.7226562,0.617188 0.4683459,0.72065 0.955605,1.455888 1.4980469,2.238281 0.7258843,1.047009 1.4094584,2.087185 1.9257812,2.931641 0.2581597,0.422222 0.4756121,0.796555 0.6425781,1.107421 0.166966,0.310866 0.2816137,0.464515 0.3691407,0.863282 0.2362472,1.076844 0.3891492,2.110969 0.4433592,2.929687 0.0017,0.02584 5.9e-5,0.04691 0.002,0.07227 3.40225,-1.091025 9.022303,-2.811169 12.447266,-3.341797 2.425633,-0.375802 5.472325,-0.582737 8.199219,-0.730469 0.291648,-0.464691 0.638582,-0.892293 1.033203,-1.273437 -1.003444,-0.03191 -1.810407,-1.100331 -1.810547,-2.419922 1.18e-4,-1.116918 0.581386,-2.048146 1.367187,-2.330078 -0.0063,-0.03151 -0.0096,-0.06356 -0.0098,-0.0957 -0.96207,-1.077394 -2.49474,-2.590395 -3.855469,-2.640626 z m 17.667969,0 c -1.360729,0.05023 -2.893399,1.56323 -3.855469,2.640626 -1.89e-4,0.03213 -0.0035,0.06433 -0.0098,0.0957 0.785801,0.28193 1.36707,1.213163 1.367188,2.330078 -1.27e-4,1.193397 -0.661029,2.180361 -1.529297,2.382812 0.423163,0.39511 0.794015,0.842758 1.103516,1.332031 2.644841,0.148633 5.527486,0.349522 7.847656,0.708985 3.424963,0.530627 9.045017,2.250772 12.447265,3.341797 0.0018,-0.02536 2.08e-4,-0.04657 0.002,-0.07227 0.05421,-0.818717 0.207112,-1.852843 0.443359,-2.929687 0.08753,-0.398767 0.202176,-0.552415 0.369141,-0.863282 0.166966,-0.310866 0.384417,-0.6852 0.642578,-1.107421 0.516323,-0.844457 1.199897,-1.884629 1.925781,-2.931641 0.542442,-0.782393 1.029701,-1.517631 1.498047,-2.238281 -0.283973,-0.276805 -0.548855,-0.515821 -0.722656,-0.617188 -0.343863,-0.200579 -1.030306,-0.261723 -1.628907,-0.285156 -2.016128,0.209662 -4.601556,2.5563 -5.783203,4.595703 3.7e-5,0.0038 3.7e-5,0.0079 0,0.01172 0.558638,0.417997 0.939356,1.195687 0.939453,2.097656 -1.42e-4,1.33988 -0.830854,2.425925 -1.855468,2.425781 -1.024614,1.44e-4 -1.855327,-1.085901 -1.855469,-2.425781 1.36e-4,-1.275814 0.756307,-2.309305 1.71289,-2.40625 -0.447137,-1.369557 -1.346323,-2.948788 -2.839843,-3.802734 -1.339084,-0.360261 -3.469507,0.766477 -4.560547,1.804687 -3e-4,0.01425 -8.06e-4,0.02861 -0.002,0.04297 0.542008,0.423927 0.908654,1.192136 0.908203,2.078125 -1.42e-4,1.33988 -0.830855,2.425925 -1.855469,2.425781 -1.023851,-0.0013 -1.853374,-1.086899 -1.853515,-2.425781 -5.71e-4,-1.120551 0.583641,-2.054526 1.373046,-2.333985 -0.731265,-1.519467 -2.229454,-3.236048 -4.228515,-3.875 z m -31.152344,6.949219 c -0.0071,0.0014 -0.0143,0.0027 -0.02148,0.0039 0.0044,0.0067 0.0093,0.01284 0.01367,0.01953 0.0019,-0.0063 0.0058,-0.0171 0.0078,-0.02344 z m 44.636719,0 c 0.002,0.0064 0.0059,0.01701 0.0078,0.02344 0.0044,-0.0068 0.0093,-0.01273 0.01367,-0.01953 -0.0072,-0.0011 -0.01438,-0.0025 -0.02148,-0.0039 z M 30.431709,45.41184 c -2.965659,-0.172207 -6.20789,0.309775 -8.648506,0.955348 -0.08083,0.459342 -0.115715,1.036944 -0.01953,1.730468 0.182296,1.314558 0.460162,2.031444 0.652344,2.455078 0.05868,-0.0096 0.134039,-0.02822 0.191406,-0.03711 1.125665,-0.240958 2.682816,-0.641313 7.804755,-0.861598 -0.189702,-0.707442 -0.561259,-1.107873 -0.560681,-1.970163 4.21e-4,-0.626535 0.357431,-1.802413 0.580213,-2.272024 z m 12.207686,4.563291 c 2.230387,-0.103408 5.850366,0.287455 7.483652,0.540494 0.05737,0.0087 0.132725,0.02766 0.191406,0.03711 0.192182,-0.423636 0.47005,-1.14052 0.652344,-2.455078 0.09617,-0.693524 0.0613,-1.271125 -0.01953,-1.730468 -0.418404,-0.06743 -0.829785,-0.14986 -1.251954,-0.205079 -1.6796,-0.219779 -5.571944,-0.709572 -6.908031,-0.709185 0.286932,1.23919 0.361437,2.605697 -0.147887,4.522206 z M 20.679688,46.548828 c -1.927545,0.357836 -3.773213,0.812042 -5.433594,1.291016 -0.07795,0.516663 -0.09263,1.258638 0.154297,2.175781 0.240495,0.893266 0.527472,1.560265 0.763671,2.023437 1.792833,-0.503698 3.551202,-0.948846 5.078126,-1.259765 -0.228404,-0.582524 -0.666325,-1.751913 -0.761719,-2.769531 -0.0486,-0.518444 0.06263,-1.018821 0.199219,-1.460938 z m 31.371093,0 c 0.13659,0.442118 0.24782,0.942492 0.199219,1.460938 -0.09539,1.017619 -0.533314,2.187007 -0.761719,2.769531 1.526924,0.310919 3.285292,0.756069 5.078125,1.259765 0.236201,-0.463172 0.523177,-1.130172 0.763672,-2.023437 0.246924,-0.917144 0.232246,-1.659116 0.154297,-2.175781 -1.660381,-0.478972 -3.506049,-0.93317 -5.433594,-1.291016 z m -37.832031,1.59961 c -1.739057,0.532531 -3.210438,1.057432 -4.2695312,1.457031 -0.04933,0.08857 -0.1126756,0.183634 -0.2265626,0.287109 -0.0227,0.02063 -0.07619,0.01724 -0.1035156,0.03711 -0.009,0.0161 -0.018211,0.03577 -0.050781,0.109374 -0.08804,0.198932 -0.199119,0.541907 -0.28125,0.916016 -0.150616,0.685869 -0.1167464,1.482576 0.050781,2.089844 0.14502,0.525645 0.3805504,0.813794 0.4902344,0.914062 1.414281,-0.453951 3.24348,-1.028235 5.191406,-1.59375 -0.336324,-0.657708 -0.731843,-1.503262 -0.904297,-2.279296 -0.154223,-0.694008 -0.03627,-1.407814 0.103516,-1.9375 z m 44.292969,0 c 0.139801,0.529688 0.257739,1.243491 0.103515,1.9375 -0.172453,0.776034 -0.567972,1.621587 -0.904296,2.279296 1.947924,0.565516 3.777125,1.139799 5.191406,1.59375 0.109684,-0.10027 0.345214,-0.388417 0.490234,-0.914062 0.167528,-0.607268 0.2014,-1.403973 0.05078,-2.089844 -0.08213,-0.374109 -0.193209,-0.717099 -0.28125,-0.916016 -0.03256,-0.07347 -0.04179,-0.09312 -0.05078,-0.109374 -0.02732,-0.01965 -0.0808,-0.01632 -0.103516,-0.03711 -0.113887,-0.103446 -0.177232,-0.198555 -0.226562,-0.287109 -1.059093,-0.399598 -2.530474,-0.924501 -4.269531,-1.457031 z m -27.458985,3.328124 c -2.448318,0.08834 -5.363507,0.260162 -8.017578,0.607422 -4.822672,0.631005 -9.461753,2.112632 -12.234375,3.121094 0.0061,0.02018 0.01572,0.04048 0.02149,0.06055 0.132424,0.460037 0.185546,0.971398 0.185546,1.566406 0.0016,0.520943 0.06708,0.978971 0.117188,1.490235 0.520557,-0.306444 1.122477,-0.563246 1.875,-0.833985 1.310591,-0.471515 2.973325,-0.917522 4.878906,-1.298828 5.280373,-1.056581 11.915957,-1.529121 18.486328,-1.539062 6.570372,0.0099 13.205957,0.482481 18.486328,1.539062 1.905582,0.381309 3.568316,0.827313 4.878907,1.298828 0.752523,0.270739 1.354443,0.527541 1.875,0.833985 0.05011,-0.511265 0.115587,-0.969291 0.117187,-1.490235 0,-0.595007 0.05312,-1.106369 0.185547,-1.566406 0.0058,-0.02007 0.01541,-0.04051 0.02148,-0.06055 C 59.157066,54.196617 54.517985,52.714988 49.695312,52.083984 47.152405,51.751275 44.382754,51.583739 42,51.492188 c -1.275696,1.745421 -3.306833,2.778399 -5.46875,2.78125 -2.16816,-0.0034 -4.204131,-1.042775 -5.478516,-2.796876 z m 5.285157,4.742188 c -0.04349,1.02e-4 -0.07972,0.0019 -0.123047,0.002 -0.0055,-1.1e-5 -0.01033,6.4e-5 -0.01563,0 v 0.002 c -11.671625,0.02357 -17.913021,0.838375 -23.552735,2.652344 -0.37723,0.121326 -0.604401,0.28223 -0.9375,0.386719 0.82254,1.022765 3.34311,2.065572 4.40625,2.330078 2.626517,0.653465 6.118688,1.303019 9.462891,1.699219 1.927238,0.228335 6.19448,0.279868 10.787109,0.21875 4.59263,0.06114 8.859872,0.0096 10.78711,-0.21875 3.344203,-0.396201 6.836373,-1.045754 9.46289,-1.699219 1.06314,-0.264507 3.583711,-1.307312 4.40625,-2.330078 -0.333098,-0.1045 -0.560269,-0.265396 -0.9375,-0.386719 -5.639713,-1.813971 -11.88111,-2.628625 -23.552734,-2.652344 v -0.002 c -0.0053,6.5e-5 -0.01011,-1.3e-5 -0.01563,0 -0.04333,-3.2e-5 -0.07956,-0.0019 -0.123047,-0.002 -0.0098,-4e-6 -0.01752,0 -0.02734,0 -0.0098,0 -0.01755,-4e-6 -0.02734,0 z"
       transform="matrix(0.26458333,0,0,0.26458333,-10.490421,-32.25149)"
       id="path34"
       inkscape:connector-curvature="0"
       sodipodi:nodetypes="ccscccccscccccccccccccccccccccccccccccccccsccccccccccsccccccccccccccccccccccccccccccccccscccccccccccccccccccscccsccccccccccccsccccccccccccccccccccccccccccccccccccccccccccccccccccccccscccccccccccccccccccccccccsccccccccccccccccccccccccccccccccccsccccccsccc" />
    <circle
       style="opacity:1;vector-effect:none;fill:#c28f20;fill-opacity:1;stroke-width:0.26758745;stroke-linecap:butt;stroke-linejoin:miter;stroke-miterlimit:4;stroke-dasharray:none;stroke-dashoffset:0;stroke-opacity:1"
       id="path1560"
       cx="-0.8250348"
       cy="-19.686729"
       r="1.3231527" />
  </g>
</svg>
