<?xml version="1.0" encoding="UTF-8" standalone="no"?>
<svg
   xmlns:dc="http://purl.org/dc/elements/1.1/"
   xmlns:cc="http://creativecommons.org/ns#"
   xmlns:rdf="http://www.w3.org/1999/02/22-rdf-syntax-ns#"
   xmlns:svg="http://www.w3.org/2000/svg"
   xmlns="http://www.w3.org/2000/svg"
   id="svg107"
   version="1.1"
   viewBox="0 0 101.23203 107.48784"
   height="107.48784mm"
   width="101.23203mm">
  <defs
     id="defs101" />
  <metadata
     id="metadata104">
    <rdf:RDF>
      <cc:Work
         rdf:about="">
        <dc:format>image/svg+xml</dc:format>
        <dc:type
           rdf:resource="http://purl.org/dc/dcmitype/StillImage" />
        <dc:title></dc:title>
      </cc:Work>
    </rdf:RDF>
  </metadata>
  <g
     id="layer1">
    <path
       id="path21"
       d="m 0.00265512,6.5641 c 0.0586,-0.75403 0.20907,-1.37889 0.49084,-2.03838 0.35472,-0.83019 0.87641998,-1.54493 1.54463998,-2.11615 0.79488,-0.6795 1.69083,-1.17222 2.84472,-1.56444 1.45555,-0.49476 3.11859,-0.73152 4.79886,-0.6832 0.8027199,0.0231 1.3440299,0.0797 2.2345999,0.23362 1.03254,0.17848 1.60787,0.23408 2.23106,0.21561 0.67561,-0.02 1.1081,-0.089 1.98259,-0.31617 C 17.060785,0.05317 17.378115,1.0004253e-5 17.890635,0 c 0.56309,-1.9995747e-5 1.10087,0.0705 1.89086,0.24812 0.70486,0.15844 0.81927,0.18292 1.01025,0.2161 0.24148,0.042 0.57472,0.0558 0.79325,0.0329 0.083,-0.009 0.1533,-0.0135 0.15613,-0.0107 0.0102,0.0102 -0.14838,0.26037 -0.25665,0.40506 -0.4585,0.61276 -1.16193,1.07876 -1.85923,1.23167 -0.25526,0.056 -0.37897,0.0686 -0.6774,0.0688 -0.21458,0 -0.28066,0.004 -0.27086,0.0159 0.0219,0.0264 0.27755,0.13259 0.45872,0.19051 0.51213,0.16373 0.99862,0.16832 1.51683,0.0143 0.26106,-0.0776 0.47221,-0.16541 1.05335,-0.43816 0.77966,-0.36593 1.18455,-0.49842 1.711597,-0.56007 0.199628,-0.0233 0.622671,-0.0265 0.824894,-0.006 0.444269,0.0447 0.962362,0.17706 1.463151,0.37394 0.166548,0.0655 0.156522,0.0305 0.08098,0.28261 -0.272295,0.90884 -0.787171,1.556 -1.532621,1.9264 -0.279528,0.13889 -0.587046,0.2332 -0.941481,0.28874 -0.16681,0.0262 -0.24401,0.0301 -0.59405,0.0303 -0.35317,0 -0.42655,-0.004 -0.60092,-0.0305 -0.10924,-0.0169 -0.20519,-0.0285 -0.21322,-0.0258 -0.0263,0.009 0.20847,0.14679 0.48313,0.28411 0.90358,0.45179 1.977594,0.79937 2.878986,0.93173 0.493122,0.0724 1.032511,0.0898 1.501963,0.0484 1.248354,-0.1101 2.000761,-0.42372 2.273287,-0.94755 0.116957,-0.2248 0.140743,-0.47683 0.06605,-0.69977 C 29.056831,3.7194 29.018691,3.65222 28.864907,3.44354 28.67527,3.1862 28.630302,3.07542 28.642608,2.89587 c 0.01271,-0.18549 0.118213,-0.33616 0.303576,-0.43357 0.135452,-0.0712 0.244339,-0.0925 0.437135,-0.0856 0.136284,0.005 0.180152,0.0123 0.28651,0.0485 0.248966,0.0847 0.458614,0.24248 0.628282,0.47271 0.224514,0.30466 0.388355,0.76902 0.423001,1.19888 l 0.0032,0.0402 h 8.86884 8.868793 l 0.02228,-0.0288 c 0.01226,-0.0158 0.05156,-0.069 0.08735,-0.1181 0.115502,-0.15854 0.312782,-0.28707 0.529346,-0.34488 0.142505,-0.038 0.434553,-0.049 0.545544,-0.0206 0.272835,0.07 0.491383,0.22181 0.630307,0.43778 0.115813,0.18004 0.16564,0.34452 0.176954,0.58413 0.0064,0.13627 0.0032,0.17839 -0.02078,0.27491 -0.09028,0.36256 -0.363881,0.64797 -0.732912,0.76455 -0.127435,0.0403 -0.391895,0.0516 -0.516972,0.0221 -0.286041,-0.0673 -0.525794,-0.24021 -0.696461,-0.50224 l -0.0707,-0.10854 -8.989109,0.004 -8.989111,0.004 -0.106446,0.13222 c -0.05855,0.0727 -0.178099,0.20165 -0.265676,0.28651 -0.618238,0.59906 -1.449858,0.95104 -2.552985,1.08054 -0.287457,0.0337 -0.926797,0.041 -1.173466,0.0133 C 24.851921,6.45093 23.389745,5.99385 21.484615,5.10034 21.080065,4.91061 20.245175,4.49387 19.493175,4.10631 17.810205,3.23895 17.161545,2.9206 16.288095,2.53329 14.487685,1.73496 12.821585,1.24863 11.192155,1.04582 10.172855,0.91894 9.3012251,0.90243 8.0004851,0.98532 c -2.11938,0.13507 -3.87063,0.72613 -5.04883,1.70402 -1.1586,0.96162 -2.00377998,2.6433 -2.09861998,4.17565 -0.0142,0.22895 -0.004,0.49745 0.0198,0.5051 0.007,0.002 0.0374,-0.0424 0.0667,-0.0995 C 1.2068051,6.74984 1.6671051,6.12741 2.1602151,5.61995 c 1.49058,-1.53397 3.59898,-2.507 5.98773,-2.76339 0.51342,-0.0551 0.66164,-0.0616 1.40139,-0.0616 0.7139299,0 0.8722999,0.006 1.3745599,0.0544 2.50634,0.24017 5.24742,1.12395 8.15994,2.63092 0.57619,0.29813 0.84069,0.44143 1.8509,1.00277 1.02572,0.56996 1.45937,0.80284 1.82751,0.98141 0.949853,0.46074 1.600684,0.6731 2.403466,0.78422 0.202966,0.0281 0.937758,0.0239 1.173407,-0.007 0.232153,-0.0301 0.535247,-0.0889 0.762102,-0.14788 l 0.172049,-0.0447 -0.0087,0.0816 c -0.06041,0.56582 -0.243484,1.07054 -0.539672,1.48779 -0.04253,0.0599 -0.140687,0.17263 -0.218134,0.25049 -0.273462,0.27494 -0.615364,0.45555 -1.017812,0.53767 -0.168925,0.0345 -0.50058,0.0471 -0.685371,0.0262 -0.808836,-0.0918 -1.703715,-0.56872 -2.749055,-1.46508 -0.26819,-0.22998 -0.4825,-0.42861 -0.90179,-0.83583 -0.60122,-0.58392 -0.84982,-0.81133 -0.88694,-0.81133 -0.0271,0 0.005,0.0552 0.10363,0.17881 0.52757,0.66069 0.78842,1.21625 0.88575,1.88639 0.0331,0.22819 0.0466,0.38882 0.0821,0.97771 0.0415,0.688 0.0625,0.93619 0.11451,1.3536 0.0703,0.56386 0.15743,1.05329 0.29577,1.66139 0.0733,0.32197 0.25785,1.03784 0.27463,1.06499 0.009,0.0144 0.0193,0.0151 -0.15834,-0.01 -0.82163,-0.11386 -1.62046,-0.51192 -2.20316,-1.09785 -0.26109,-0.26253 -0.45887,-0.54137 -0.64273,-0.90615 -0.19231,-0.38154 -0.29406,-0.67062 -0.55826,-1.586 -0.30535,-1.05797 -0.4571,-1.47622 -0.74214,-2.04556 -0.28664,-0.57252 -0.5391,-0.93606 -0.90608,-1.30474 -0.28721,-0.28853 -0.54573,-0.48138 -0.85581,-0.63841 -0.0923,-0.0467 -0.16999,-0.0828 -0.17269,-0.0801 -0.003,0.003 0.029,0.0767 0.0705,0.16453 0.25729,0.54447 0.43154,1.00435 0.58887,1.55418 0.46499,1.62501 0.47015,3.2764 0.0146,4.67622 -0.32462,0.99753 -0.89572,1.88833 -1.61718,2.52243 -0.85962,0.75553 -1.92644,1.22646 -3.0778,1.35864 -0.27516,0.0316 -0.80158,0.0317 -1.06383,5e-4 -0.62705,-0.0751 -1.1193399,-0.22159 -1.6785899,-0.49946 -0.95048,-0.47226 -1.7542,-1.22915 -2.33777,-2.20156 -0.41769,-0.69601 -0.68645,-1.45946 -0.79412,-2.25579 -0.0299,-0.22082 -0.0418,-0.83889 -0.0207,-1.06992 0.0998,-1.09119 0.54111,-2.01977 1.31757,-2.77215 0.40787,-0.39521 0.82245,-0.66259 1.28518,-0.82885 1.17368,-0.42172 2.4732299,-0.12339 2.9983099,0.68832 0.091,0.1406 0.0995,0.14263 0.0995,0.0236 0,-0.61063 -0.70392,-1.22774 -1.6628899,-1.45783 -0.30616,-0.0735 -0.44081,-0.0877 -0.83144,-0.0879 -0.37894,-5.1e-4 -0.46358,0.008 -0.79121,0.0738 -0.70857,0.14301 -1.36941,0.47007 -1.96462,0.9723 -0.16869,0.14234 -0.48961,0.46565 -0.63864,0.64339 -0.86974,1.03732 -1.463,2.4879 -1.66733,4.07676 -0.0648,0.50406 -0.0912,1.23728 -0.0623,1.72994 0.11172,1.90276 0.74538,3.57829 1.83339,4.84785 0.16646,0.19424 0.53738,0.56718 0.69581,0.6996 0.87467,0.73107 1.94361,1.21045 2.95699,1.32609 0.17789,0.0203 0.5861099,0.0203 0.7442699,0 0.61078,-0.0784 1.10694,-0.31839 1.50303,-0.7271 0.14368,-0.14825 0.21646,-0.23539 0.46256,-0.55386 0.43513,-0.56308 0.7081,-0.77024 1.17915,-0.89487 0.20134,-0.0533 0.51312,-0.0674 0.70233,-0.0317 0.45361,0.0854 0.79098,0.37003 0.93273,0.78691 0.0567,0.16673 0.0726,0.29087 0.0645,0.50402 -0.0104,0.27572 -0.0787,0.49979 -0.22163,0.7267 -0.16853,0.26763 -0.37148,0.45454 -0.67671,0.62324 -0.0894,0.0494 -0.11274,0.0757 -0.0671,0.0754 0.0129,0 0.0879,-0.0147 0.16668,-0.0326 1.36157,-0.30887 3.24425,-1.43492 4.11473,-2.46106 0.0691,-0.0814 0.12999,-0.14805 0.13536,-0.14805 0.0223,0 0.10457,0.42164 0.13995,0.71745 0.028,0.2344 0.0386,0.69055 0.022,0.94543 -0.007,0.11432 -0.0112,0.21026 -0.008,0.21321 0.003,0.003 0.0975,-0.0224 0.2101,-0.0564 0.73297,-0.22097 1.2918,-0.31017 1.94139,-0.30989 0.48704,0 0.84719,0.048 1.25071,0.16602 0.90307,0.26407 1.618477,0.83541 2.0324,1.6231 0.253777,0.48294 0.394825,1.13658 0.352997,1.63583 -0.07792,0.93004 -0.525246,1.66809 -1.128367,1.86171 -0.157,0.0504 -0.24137,0.0598 -0.47194,0.0524 -0.24933,-0.008 -0.36333,-0.0324 -0.54054,-0.11592 -0.21092,-0.0994 -0.32855,-0.21856 -0.32855,-0.33287 0,-0.0492 0.007,-0.0663 0.0409,-0.0978 0.0608,-0.0568 0.16194,-0.0883 0.33862,-0.10541 0.37117,-0.0359 0.58489,-0.12031 0.76759,-0.303 0.14698,-0.14699 0.23875,-0.31369 0.28936,-0.52567 0.03726,-0.15604 0.03045,-0.43928 -0.0143,-0.5932 -0.12452,-0.42868 -0.44017,-0.74783 -0.9001,-0.91004 -0.50527,-0.17821 -1.13753,-0.0669 -1.90334,0.33494 -0.53329,0.27986 -0.9726,0.57768 -2.17248,1.47276 -1.32557,0.98883 -1.83414,1.32855 -2.46697,1.64792 -0.65827,0.3322 -1.16111,0.47398 -1.68354,0.4747 -0.49459,7.1e-4 -0.90595,-0.12999 -1.3006,-0.41314 -0.0563,-0.0404 -0.10414,-0.0735 -0.10625,-0.0735 -0.002,0 -0.008,0.083 -0.0124,0.1844 -0.0122,0.26142 -0.0677,0.48368 -0.1734,0.69398 -0.16243,0.3233 -0.47939,0.62006 -0.8442,0.7904 -0.13189,0.0616 -0.39494,0.15057 -0.40762,0.13789 -0.004,-0.004 2e-4,-0.0867 0.01,-0.18355 0.0258,-0.2637 -0.005,-0.37342 -0.16035,-0.56587 -0.21334,-0.26479 -0.75979,-0.66932 -1.6448199,-1.21766 -0.6301,-0.39039 -0.72825,-0.45286 -0.92512,-0.58884 -0.66077,-0.45637 -1.17917,-0.89095 -1.7848,-1.49621 -0.41747,-0.41721 -0.59677,-0.61522 -0.89326,-0.98644 -0.28469,-0.35645 -0.29829,-0.37183 -0.30372,-0.34363 -0.007,0.0366 0.15554,0.35404 0.28395,0.5544 0.42993,0.67079 0.97967,1.35524 2.14111,2.66576 0.47931,0.54083 0.76293,0.86896 0.97366,1.12647 0.9450599,1.15485 1.3449299,2.00468 1.4408399,3.0622 0.0211,0.23197 0.009,0.84274 -0.0206,1.08831 -0.0503,0.41036 -0.13953,0.85449 -0.24925,1.24046 -0.0885,0.31128 -0.22506,0.69063 -0.24863,0.69063 -0.01,0 -0.0633,-0.0181 -0.1188799,-0.0401 -0.57446,-0.2282 -0.93674,-0.60712 -1.15403,-1.20703 -0.0654,-0.18058 -0.0816,-0.2001 -0.0931,-0.11242 -0.0336,0.25535 -0.0926,0.45879 -0.19595,0.67528 -0.25352,0.53127 -0.69984,0.92562 -1.24593,1.10086 l -0.15422,0.0495 -0.003,9.08599 -0.003,9.08601 0.0873,0.0623 c 0.21364,0.15245 0.34282,0.33189 0.41715,0.57944 0.03,0.0999 0.0356,0.14441 0.0361,0.28594 4.1e-4,0.11379 -0.007,0.19725 -0.0221,0.25984 -0.11754,0.47834 -0.50217,0.79197 -1.00817,0.82209 -0.49346,0.0294 -0.91827,-0.29658 -1.06058,-0.81375 -0.0337,-0.12254 -0.0341,-0.41561 -6.4e-4,-0.53639 0.0749,-0.27075 0.25528,-0.49997 0.51114,-0.6496 l 0.0877,-0.0513 v -9.10827 -9.10824 l -0.0302,-0.0262 c -0.0166,-0.0144 -0.0754,-0.0562 -0.13075,-0.0928 -0.13553,-0.0898 -0.32538,-0.28199 -0.42147,-0.42659 -0.20569,-0.30953 -0.30056,-0.70569 -0.26279,-1.09732 0.0154,-0.15946 0.0583,-0.35991 0.0972,-0.45375 0.0187,-0.0452 0.0197,-0.0401 0.0272,0.13411 0.0113,0.26586 0.0585,0.44889 0.16042,0.62167 0.19656,0.33337 0.60137,0.51477 1.0389,0.46554 0.42689,-0.048 0.80401,-0.26164 1.0533,-0.59659 0.17281,-0.23218 0.31396,-0.62024 0.39942,-1.09816 0.11362,-0.6353 0.0115,-1.49936 -0.28476,-2.40923 -0.18314,-0.56248 -0.42342,-1.11822 -0.82067,-1.89813 -0.21831,-0.42861 -0.39167,-0.74994 -1.0093,-1.87075 -0.32249,-0.58523 -0.49092,-0.89762 -0.71579,-1.32763 -1.60703,-3.07296 -2.33525,-5.70919 -2.42124,-8.76509 l -0.009,-0.32326 -0.16905,-0.008 c -0.65117,-0.0293 -1.26904,-0.37238 -1.71239998,-0.95078 -0.51317,-0.66949 -0.78378,-1.59051 -0.78321,-2.66562 3.1e-4,-0.53585 0.0777,-1.1967 0.18773,-1.60365 0.0426,-0.15757 0.0457,-0.12664 -0.0418,-0.41393 -0.10955,-0.35925 -0.17836,-0.68425 -0.22033,-1.04066 -0.0202,-0.17194 -0.0367,-0.80632 -0.0248,-0.95884 z m 0.72215,4.63329 c 0.0786,0.58156 0.30556998,1.03063 0.66699998,1.31981 0.22896,0.18319 0.46775,0.27429 0.74933,0.28588 0.19979,0.008 0.33449,-0.0141 0.50624,-0.0837 0.12528,-0.0508 0.30395,-0.15712 0.31574,-0.18786 0.004,-0.0111 0.0259,-0.11036 0.0482,-0.22057 0.16354,-0.81059 0.42896,-1.65046 0.74264,-2.34989 0.54824,-1.22246 1.29688,-2.20584 2.23499,-2.93581 0.80355,-0.62526 1.77454,-1.02943 2.66867,-1.1108 0.19482,-0.0177 0.36286,-0.018 0.58,-8.1e-4 0.094,0.007 0.25094,0.0199 0.34866,0.0277 1.0893799,0.0871 2.0846999,0.66362 2.6111799,1.51248 0.30332,0.48906 0.44848,1.04622 0.40274,1.54582 -0.0327,0.35692 -0.11731,0.66627 -0.26189,0.95731 -0.10984,0.22111 -0.23316,0.39458 -0.39644,0.55765 -0.31046,0.31004 -0.68825,0.48166 -1.06032,0.48166 -0.15517,0 -0.28522,-0.0295 -0.42694,-0.0968 -0.0939,-0.0446 -0.13422,-0.0746 -0.22852,-0.16978 -0.14137,-0.14273 -0.22074,-0.29141 -0.2765299,-0.51795 -0.0313,-0.12701 -0.0364,-0.17548 -0.0365,-0.34867 -3.1e-4,-0.46986 0.1395099,-0.67871 0.5213799,-0.77895 0.0758,-0.0199 0.1461,-0.0247 0.3654,-0.0252 0.14934,-5e-4 0.27154,-0.005 0.27156,-0.0114 0,-0.006 -0.0205,-0.0554 -0.0456,-0.10963 -0.17876,-0.38689 -0.56398,-0.65805 -1.0995999,-0.77403 -0.19696,-0.0426 -0.59616,-0.0421 -0.79931,10e-4 -0.43552,0.0927 -0.7822,0.27596 -1.08125,0.57158 -0.22933,0.22669 -0.37546,0.44293 -0.52561,0.7778 -0.49008,1.09296 -0.4413,2.13312 0.14212,3.03074 0.62123,0.95578 1.82171,1.62987 3.1182999,1.75096 0.24724,0.0231 0.75694,0.009 0.98158,-0.0266 0.68015,-0.10869 1.25942,-0.36827 1.76514,-0.79098 0.17459,-0.14594 0.49129,-0.47492 0.63419,-0.6588 0.51602,-0.66396 0.89174,-1.49107 1.07395,-2.3642 0.1004,-0.4811 0.13364,-0.84681 0.1236,-1.35987 -0.008,-0.3848 -0.0249,-0.57373 -0.084,-0.91555 -0.14047,-0.8115 -0.46819,-1.58874 -0.93407,-2.21521 -0.89592,-1.20477 -2.35018,-2.00205 -4.11565,-2.25634 -0.4310099,-0.0621 -0.6931099,-0.0796 -1.1988399,-0.08 -0.49621,-5.1e-4 -0.69989,0.0115 -1.14659,0.067 -2.4981,0.31048 -4.71413,1.5985 -5.97742,3.47422 -0.61198,0.90867 -0.99512998,1.92521 -1.14906998,3.04866 -0.0453,0.33032 -0.0435,0.30757 -0.0457,0.59006 -0.001,0.15024 0.006,0.30363 0.0172,0.3889 z"
       style="fill:#000000;stroke-width:0.01341037" />
    <path
       style="fill:#000000;stroke-width:0.01341037"
       d="m 101.2289,6.5641 c -0.0586,-0.75403 -0.20907,-1.37889 -0.49084,-2.03838 -0.35472,-0.83019 -0.876417,-1.54493 -1.544634,-2.11615 -0.79488,-0.6795 -1.69083,-1.17222 -2.84472,-1.56444 -1.45555,-0.49476 -3.11859,-0.73152 -4.79886,-0.6832 -0.80272,0.0231 -1.34403,0.0797 -2.2346,0.23362 -1.03254,0.17848 -1.60787,0.23408 -2.23106,0.21561 -0.67561,-0.02 -1.1081,-0.089 -1.98259,-0.31617 C 84.170776,0.05317 83.853446,1.0004253e-5 83.340926,0 c -0.56309,-1.9995747e-5 -1.10087,0.0705 -1.89086,0.24812 -0.70486,0.15844 -0.81927,0.18292 -1.01025,0.2161 -0.24148,0.042 -0.57472,0.0558 -0.79325,0.0329 -0.083,-0.009 -0.1533,-0.0135 -0.15613,-0.0107 -0.0102,0.0102 0.14838,0.26037 0.25665,0.40506 0.4585,0.61276 1.16193,1.07876 1.85923,1.23167 0.25526,0.056 0.37897,0.0686 0.6774,0.0688 0.21458,0 0.28066,0.004 0.27086,0.0159 -0.0219,0.0264 -0.27755,0.13259 -0.45872,0.19051 -0.51213,0.16373 -0.99862,0.16832 -1.51683,0.0143 -0.26106,-0.0776 -0.47221,-0.16541 -1.05335,-0.43816 -0.77966,-0.36593 -1.18455,-0.49842 -1.71159,-0.56007 -0.19963,-0.0233 -0.62268,-0.0265 -0.8249,-0.006 -0.44427,0.0447 -0.96236,0.17706 -1.46315,0.37394 -0.16655,0.0655 -0.15652,0.0305 -0.081,0.28261 0.2723,0.90884 0.78717,1.556 1.53262,1.9264 0.27953,0.13889 0.58705,0.2332 0.94148,0.28874 0.16681,0.0262 0.24401,0.0301 0.59405,0.0303 0.35317,0 0.42655,-0.004 0.60092,-0.0305 0.10924,-0.0169 0.20519,-0.0285 0.21322,-0.0258 0.0263,0.009 -0.20847,0.14679 -0.48313,0.28411 -0.90358,0.45179 -1.97759,0.79937 -2.87898,0.93173 -0.49313,0.0724 -1.03251,0.0898 -1.50197,0.0484 -1.24835,-0.1101 -2.00076,-0.42372 -2.27328,-0.94755 -0.11696,-0.2248 -0.14075,-0.47683 -0.0661,-0.69977 0.0508,-0.15164 0.0889,-0.21882 0.24272,-0.4275 0.18964,-0.25734 0.23461,-0.36812 0.2223,-0.54767 -0.0127,-0.18549 -0.11821,-0.33616 -0.30358,-0.43357 -0.13545,-0.0712 -0.24434,-0.0925 -0.43713,-0.0856 -0.13629,0.005 -0.18015,0.0123 -0.28651,0.0485 -0.24897,0.0847 -0.45862,0.24248 -0.62828,0.47271 -0.22452,0.30466 -0.38836,0.76902 -0.423,1.19888 l -0.003,0.0402 h -8.86884 -8.8688 l -0.0223,-0.0288 c -0.0123,-0.0158 -0.0516,-0.069 -0.0873,-0.1181 -0.1155,-0.15854 -0.31278,-0.28707 -0.52934,-0.34488 -0.14251,-0.038 -0.43456,-0.049 -0.54555,-0.0206 -0.27283,0.07 -0.49138,0.22181 -0.6303,0.43778 -0.11582,0.18004 -0.16564,0.34452 -0.17696,0.58413 -0.006,0.13627 -0.003,0.17839 0.0208,0.27491 0.0903,0.36256 0.36388,0.64797 0.73291,0.76455 0.12744,0.0403 0.3919,0.0516 0.51698,0.0221 0.28604,-0.0673 0.52579,-0.24021 0.69646,-0.50224 l 0.0707,-0.10854 8.98911,0.004 8.98911,0.004 0.10644,0.13222 c 0.0585,0.0727 0.1781,0.20165 0.26568,0.28651 0.61824,0.59906 1.44986,0.95104 2.55298,1.08054 0.28746,0.0337 0.9268,0.041 1.17347,0.0133 1.48719,-0.16694 2.94936,-0.62402 4.85449,-1.51753 0.40455,-0.18973 1.23944,-0.60647 1.99144,-0.99403 1.68297,-0.86736 2.33163,-1.18571 3.20508,-1.57302 1.80041,-0.79833 3.46651,-1.28466 5.09594,-1.48747 1.0193,-0.12688 1.89093,-0.14339 3.19167,-0.0605 2.11938,0.13507 3.87063,0.72613 5.04883,1.70402 1.1586,0.96162 2.003774,2.6433 2.098614,4.17565 0.0142,0.22895 0.004,0.49745 -0.0198,0.5051 -0.007,0.002 -0.0374,-0.0424 -0.0667,-0.0995 -0.26727,-0.52075 -0.727567,-1.14318 -1.220674,-1.65064 -1.49058,-1.53397 -3.59898,-2.507 -5.98773,-2.76339 -0.51342,-0.0551 -0.66164,-0.0616 -1.40139,-0.0616 -0.71393,0 -0.8723,0.006 -1.37456,0.0544 -2.50634,0.24017 -5.24742,1.12395 -8.15994,2.63092 -0.57619,0.29813 -0.84069,0.44143 -1.8509,1.00277 -1.02572,0.56996 -1.45937,0.80284 -1.82751,0.98141 -0.94985,0.46074 -1.60068,0.6731 -2.40346,0.78422 -0.20297,0.0281 -0.93776,0.0239 -1.17341,-0.007 -0.23215,-0.0301 -0.53525,-0.0889 -0.7621,-0.14788 l -0.17205,-0.0447 0.009,0.0816 c 0.0604,0.56582 0.24348,1.07054 0.53967,1.48779 0.0425,0.0599 0.14069,0.17263 0.21813,0.25049 0.27347,0.27494 0.61537,0.45555 1.01782,0.53767 0.16892,0.0345 0.50058,0.0471 0.68537,0.0262 0.80883,-0.0918 1.70371,-0.56872 2.74905,-1.46508 0.26819,-0.22998 0.4825,-0.42861 0.90179,-0.83583 0.60122,-0.58392 0.84982,-0.81133 0.88694,-0.81133 0.0271,0 -0.005,0.0552 -0.10363,0.17881 -0.52757,0.66069 -0.78842,1.21625 -0.88575,1.88639 -0.0331,0.22819 -0.0466,0.38882 -0.0821,0.97771 -0.0415,0.688 -0.0625,0.93619 -0.11451,1.3536 -0.0703,0.56386 -0.15743,1.05329 -0.29577,1.66139 -0.0733,0.32197 -0.25785,1.03784 -0.27463,1.06499 -0.009,0.0144 -0.0193,0.0151 0.15834,-0.01 0.82163,-0.11386 1.62046,-0.51192 2.20316,-1.09785 0.26109,-0.26253 0.45887,-0.54137 0.64273,-0.90615 0.19231,-0.38154 0.29406,-0.67062 0.55826,-1.586 0.30535,-1.05797 0.4571,-1.47622 0.74214,-2.04556 0.28664,-0.57252 0.5391,-0.93606 0.90608,-1.30474 0.28721,-0.28853 0.54573,-0.48138 0.85581,-0.63841 0.0923,-0.0467 0.16999,-0.0828 0.17269,-0.0801 0.003,0.003 -0.029,0.0767 -0.0705,0.16453 -0.25729,0.54447 -0.43154,1.00435 -0.58887,1.55418 -0.46499,1.62501 -0.47015,3.2764 -0.0146,4.67622 0.32462,0.99753 0.89572,1.88833 1.61718,2.52243 0.85962,0.75553 1.92644,1.22646 3.0778,1.35864 0.27516,0.0316 0.80158,0.0317 1.06383,5e-4 0.62705,-0.0751 1.11934,-0.22159 1.67859,-0.49946 0.95048,-0.47226 1.7542,-1.22915 2.33777,-2.20156 0.41769,-0.69601 0.68645,-1.45946 0.79412,-2.25579 0.0299,-0.22082 0.0418,-0.83889 0.0207,-1.06992 -0.0998,-1.09119 -0.54111,-2.01977 -1.31757,-2.77215 -0.40787,-0.39521 -0.82245,-0.66259 -1.28518,-0.82885 -1.17368,-0.42172 -2.47323,-0.12339 -2.99831,0.68832 -0.091,0.1406 -0.0995,0.14263 -0.0995,0.0236 0,-0.61063 0.70392,-1.22774 1.66289,-1.45783 0.30616,-0.0735 0.44081,-0.0877 0.83144,-0.0879 0.37894,-5.1e-4 0.46358,0.008 0.79121,0.0738 0.70857,0.14301 1.36941,0.47007 1.96462,0.9723 0.16869,0.14234 0.48961,0.46565 0.63864,0.64339 0.86974,1.03732 1.463,2.4879 1.66733,4.07676 0.0648,0.50406 0.0912,1.23728 0.0623,1.72994 -0.11172,1.90276 -0.74538,3.57829 -1.83339,4.84785 -0.16646,0.19424 -0.53738,0.56718 -0.69581,0.6996 -0.87467,0.73107 -1.94361,1.21045 -2.95699,1.32609 -0.17789,0.0203 -0.58611,0.0203 -0.74427,0 -0.61078,-0.0784 -1.10694,-0.31839 -1.50303,-0.7271 -0.14368,-0.14825 -0.21646,-0.23539 -0.46256,-0.55386 -0.43513,-0.56308 -0.7081,-0.77024 -1.17915,-0.89487 -0.20134,-0.0533 -0.51312,-0.0674 -0.70233,-0.0317 -0.45361,0.0854 -0.79098,0.37003 -0.93273,0.78691 -0.0567,0.16673 -0.0726,0.29087 -0.0645,0.50402 0.0104,0.27572 0.0787,0.49979 0.22163,0.7267 0.16853,0.26763 0.37148,0.45454 0.67671,0.62324 0.0894,0.0494 0.11274,0.0757 0.0671,0.0754 -0.0129,0 -0.0879,-0.0147 -0.16668,-0.0326 -1.36157,-0.30887 -3.24425,-1.43492 -4.11473,-2.46106 -0.0691,-0.0814 -0.12999,-0.14805 -0.13536,-0.14805 -0.0223,0 -0.10457,0.42164 -0.13995,0.71745 -0.028,0.2344 -0.0386,0.69055 -0.022,0.94543 0.007,0.11432 0.0112,0.21026 0.008,0.21321 -0.003,0.003 -0.0975,-0.0224 -0.2101,-0.0564 -0.73297,-0.22097 -1.2918,-0.31017 -1.94139,-0.30989 -0.48704,0 -0.84719,0.048 -1.25071,0.16602 -0.90307,0.26407 -1.61847,0.83541 -2.0324,1.6231 -0.25377,0.48294 -0.39482,1.13658 -0.35299,1.63583 0.0779,0.93004 0.52524,1.66809 1.12836,1.86171 0.157,0.0504 0.24137,0.0598 0.47194,0.0524 0.24933,-0.008 0.36333,-0.0324 0.54054,-0.11592 0.21092,-0.0994 0.32855,-0.21856 0.32855,-0.33287 0,-0.0492 -0.007,-0.0663 -0.0409,-0.0978 -0.0608,-0.0568 -0.16194,-0.0883 -0.33862,-0.10541 -0.37117,-0.0359 -0.58489,-0.12031 -0.76759,-0.303 -0.14698,-0.14699 -0.23875,-0.31369 -0.28936,-0.52567 -0.0373,-0.15604 -0.0305,-0.43928 0.0143,-0.5932 0.12452,-0.42868 0.44017,-0.74783 0.9001,-0.91004 0.50527,-0.17821 1.13753,-0.0669 1.90334,0.33494 0.53329,0.27986 0.9726,0.57768 2.17248,1.47276 1.32557,0.98883 1.83414,1.32855 2.46697,1.64792 0.65827,0.3322 1.16111,0.47398 1.68354,0.4747 0.49459,7.1e-4 0.90595,-0.12999 1.3006,-0.41314 0.0563,-0.0404 0.10414,-0.0735 0.10625,-0.0735 0.002,0 0.008,0.083 0.0124,0.1844 0.0122,0.26142 0.0677,0.48368 0.1734,0.69398 0.16243,0.3233 0.47939,0.62006 0.8442,0.7904 0.13189,0.0616 0.39494,0.15057 0.40762,0.13789 0.004,-0.004 -2e-4,-0.0867 -0.01,-0.18355 -0.0258,-0.2637 0.005,-0.37342 0.16035,-0.56587 0.21334,-0.26479 0.75979,-0.66932 1.64482,-1.21766 0.6301,-0.39039 0.72825,-0.45286 0.92512,-0.58884 0.66077,-0.45637 1.17917,-0.89095 1.7848,-1.49621 0.41747,-0.41721 0.59677,-0.61522 0.89326,-0.98644 0.28469,-0.35645 0.29829,-0.37183 0.30372,-0.34363 0.007,0.0366 -0.15554,0.35404 -0.28395,0.5544 -0.42993,0.67079 -0.97967,1.35524 -2.14111,2.66576 -0.47931,0.54083 -0.76293,0.86896 -0.97366,1.12647 -0.94506,1.15485 -1.34493,2.00468 -1.44084,3.0622 -0.0211,0.23197 -0.009,0.84274 0.0206,1.08831 0.0503,0.41036 0.13953,0.85449 0.24925,1.24046 0.0885,0.31128 0.22506,0.69063 0.24863,0.69063 0.01,0 0.0633,-0.0181 0.11888,-0.0401 0.57446,-0.2282 0.93674,-0.60712 1.15403,-1.20703 0.0654,-0.18058 0.0816,-0.2001 0.0931,-0.11242 0.0336,0.25535 0.0926,0.45879 0.19595,0.67528 0.25352,0.53127 0.69984,0.92562 1.24593,1.10086 l 0.15422,0.0495 0.003,9.08599 0.003,9.08601 -0.0873,0.0623 c -0.21364,0.15245 -0.34282,0.33189 -0.41715,0.57944 -0.03,0.0999 -0.0356,0.14441 -0.0361,0.28594 -4.1e-4,0.11379 0.007,0.19725 0.0221,0.25984 0.11754,0.47834 0.50217,0.79197 1.00817,0.82209 0.49346,0.0294 0.91827,-0.29658 1.06058,-0.81375 0.0337,-0.12254 0.0341,-0.41561 6.4e-4,-0.53639 -0.0749,-0.27075 -0.25528,-0.49997 -0.51114,-0.6496 l -0.0877,-0.0513 v -9.10827 -9.10824 l 0.0302,-0.0262 c 0.0166,-0.0144 0.0754,-0.0562 0.13075,-0.0928 0.13553,-0.0898 0.32538,-0.28199 0.42147,-0.42659 0.20569,-0.30953 0.30056,-0.70569 0.26279,-1.09732 -0.0154,-0.15946 -0.0583,-0.35991 -0.0972,-0.45375 -0.0187,-0.0452 -0.0197,-0.0401 -0.0272,0.13411 -0.0113,0.26586 -0.0585,0.44889 -0.16042,0.62167 -0.19656,0.33337 -0.60137,0.51477 -1.0389,0.46554 -0.42689,-0.048 -0.80401,-0.26164 -1.0533,-0.59659 -0.17281,-0.23218 -0.31396,-0.62024 -0.39942,-1.09816 -0.11362,-0.6353 -0.0115,-1.49936 0.28476,-2.40923 0.18314,-0.56248 0.42342,-1.11822 0.82067,-1.89813 0.21831,-0.42861 0.39167,-0.74994 1.0093,-1.87075 0.32249,-0.58523 0.49092,-0.89762 0.71579,-1.32763 1.60703,-3.07296 2.33525,-5.70919 2.42124,-8.76509 l 0.009,-0.32326 0.16905,-0.008 c 0.65117,-0.0293 1.269037,-0.37238 1.712394,-0.95078 0.51317,-0.66949 0.78378,-1.59051 0.78321,-2.66562 -3.1e-4,-0.53585 -0.0777,-1.1967 -0.18773,-1.60365 -0.0426,-0.15757 -0.0457,-0.12664 0.0418,-0.41393 0.10955,-0.35925 0.17836,-0.68425 0.22033,-1.04066 0.0202,-0.17194 0.0367,-0.80632 0.0248,-0.95884 z m -0.72215,4.63329 c -0.0786,0.58156 -0.30557,1.03063 -0.666997,1.31981 -0.22896,0.18319 -0.467747,0.27429 -0.749327,0.28588 -0.19979,0.008 -0.33449,-0.0141 -0.50624,-0.0837 -0.12528,-0.0508 -0.30395,-0.15712 -0.31574,-0.18786 -0.004,-0.0111 -0.0259,-0.11036 -0.0482,-0.22057 -0.16354,-0.81059 -0.42896,-1.65046 -0.74264,-2.34989 -0.54824,-1.22246 -1.29688,-2.20584 -2.23499,-2.93581 -0.80355,-0.62526 -1.77454,-1.02943 -2.66867,-1.1108 -0.19482,-0.0177 -0.36286,-0.018 -0.58,-8.1e-4 -0.094,0.007 -0.25094,0.0199 -0.34866,0.0277 -1.08938,0.0871 -2.0847,0.66362 -2.61118,1.51248 -0.30332,0.48906 -0.44848,1.04622 -0.40274,1.54582 0.0327,0.35692 0.11731,0.66627 0.26189,0.95731 0.10984,0.22111 0.23316,0.39458 0.39644,0.55765 0.31046,0.31004 0.68825,0.48166 1.06032,0.48166 0.15517,0 0.28522,-0.0295 0.42694,-0.0968 0.0939,-0.0446 0.13422,-0.0746 0.22852,-0.16978 0.14137,-0.14273 0.22074,-0.29141 0.27653,-0.51795 0.0313,-0.12701 0.0364,-0.17548 0.0365,-0.34867 3.1e-4,-0.46986 -0.13951,-0.67871 -0.52138,-0.77895 -0.0758,-0.0199 -0.1461,-0.0247 -0.3654,-0.0252 -0.14934,-5e-4 -0.27154,-0.005 -0.27156,-0.0114 0,-0.006 0.0205,-0.0554 0.0456,-0.10963 0.17876,-0.38689 0.56398,-0.65805 1.0996,-0.77403 0.19696,-0.0426 0.59616,-0.0421 0.79931,10e-4 0.43552,0.0927 0.7822,0.27596 1.08125,0.57158 0.22933,0.22669 0.37546,0.44293 0.52561,0.7778 0.49008,1.09296 0.4413,2.13312 -0.14212,3.03074 -0.62123,0.95578 -1.82171,1.62987 -3.1183,1.75096 -0.24724,0.0231 -0.75694,0.009 -0.98158,-0.0266 -0.68015,-0.10869 -1.25942,-0.36827 -1.76514,-0.79098 -0.17459,-0.14594 -0.49129,-0.47492 -0.63419,-0.6588 -0.51602,-0.66396 -0.89174,-1.49107 -1.07395,-2.3642 -0.1004,-0.4811 -0.13364,-0.84681 -0.1236,-1.35987 0.008,-0.3848 0.0249,-0.57373 0.084,-0.91555 0.14047,-0.8115 0.46819,-1.58874 0.93407,-2.21521 0.89592,-1.20477 2.35018,-2.00205 4.11565,-2.25634 0.43101,-0.0621 0.69311,-0.0796 1.19884,-0.08 0.49621,-5.1e-4 0.69989,0.0115 1.14659,0.067 2.4981,0.31048 4.71413,1.5985 5.97742,3.47422 0.611977,0.90867 0.995124,1.92521 1.149064,3.04866 0.0453,0.33032 0.0435,0.30757 0.0457,0.59006 0.001,0.15024 -0.006,0.30363 -0.0172,0.3889 z"
       id="path115" />
    <path
       id="path117"
       d="m 0.00313512,100.92372 c 0.0586,0.75404 0.20907,1.3789 0.49084,2.0384 0.35472,0.83019 0.87641998,1.54493 1.54463998,2.11615 0.79488,0.6795 1.69083,1.17222 2.84472,1.56444 1.45555,0.49476 3.11859,0.73152 4.7988596,0.6832 0.8027203,-0.0231 1.3440303,-0.0797 2.2346003,-0.23362 1.03254,-0.17848 1.60787,-0.23408 2.23106,-0.21561 0.67561,0.02 1.1081,0.089 1.98259,0.31617 0.93082,0.24182 1.24815,0.29498 1.76067,0.29499 0.56309,2e-5 1.10087,-0.0705 1.89086,-0.24812 0.70486,-0.15844 0.81927,-0.18292 1.01025,-0.2161 0.24148,-0.042 0.57472,-0.0558 0.79325,-0.0329 0.083,0.009 0.1533,0.0135 0.15613,0.0107 0.0102,-0.0102 -0.14838,-0.26037 -0.25665,-0.40506 -0.4585,-0.61276 -1.16193,-1.07876 -1.85923,-1.23167 -0.25526,-0.056 -0.37897,-0.0686 -0.6774,-0.0688 -0.21458,0 -0.28066,-0.004 -0.27086,-0.0159 0.0219,-0.0264 0.27755,-0.13259 0.45872,-0.19051 0.51213,-0.16373 0.99862,-0.16832 1.51683,-0.0143 0.26106,0.0776 0.47221,0.16541 1.05335,0.43816 0.77966,0.36593 1.18455,0.49842 1.7116,0.56007 0.19963,0.0233 0.62267,0.0265 0.82489,0.006 0.44427,-0.0447 0.96236,-0.17706 1.46315,-0.37394 0.16655,-0.0655 0.15652,-0.0305 0.081,-0.28261 -0.27229,-0.90884 -0.78717,-1.556 -1.53262,-1.9264 -0.27953,-0.13889 -0.58704,-0.2332 -0.94148,-0.28874 -0.16681,-0.0262 -0.24401,-0.0301 -0.59405,-0.0303 -0.35317,0 -0.42655,0.004 -0.60092,0.0305 -0.10924,0.0169 -0.20519,0.0285 -0.21322,0.0258 -0.0263,-0.009 0.20847,-0.14679 0.48313,-0.28411 0.90358,-0.4518 1.97759,-0.79938 2.87899,-0.93174 0.49312,-0.0724 1.03251,-0.0898 1.50196,-0.0484 1.24835,0.1101 2.00076,0.42372 2.27329,0.94756 0.11695,0.2248 0.14074,0.47683 0.0661,0.69977 -0.0508,0.15164 -0.0889,0.21882 -0.24273,0.4275 -0.18963,0.25734 -0.2346,0.36812 -0.2223,0.54767 0.0127,0.18549 0.11822,0.33616 0.30358,0.43357 0.13545,0.0712 0.24434,0.0925 0.43713,0.0856 0.13629,-0.005 0.18016,-0.0123 0.28651,-0.0485 0.24897,-0.0847 0.45862,-0.24248 0.62829,-0.47271 0.22451,-0.30466 0.38835,-0.76902 0.423,-1.19888 l 0.003,-0.0402 h 8.86883 8.8688 l 0.0223,0.0288 c 0.0123,0.0158 0.0516,0.069 0.0873,0.1181 0.1155,0.15854 0.31278,0.28707 0.52934,0.34488 0.14251,0.038 0.43456,0.049 0.54555,0.0206 0.27283,-0.07 0.49138,-0.22181 0.6303,-0.43778 0.11582,-0.18004 0.16564,-0.34452 0.17696,-0.58413 0.006,-0.13627 0.003,-0.17839 -0.0208,-0.27492 -0.0903,-0.36256 -0.36388,-0.64797 -0.73291,-0.76455 -0.12744,-0.0403 -0.3919,-0.0516 -0.51698,-0.0221 -0.28604,0.0673 -0.52579,0.24021 -0.69646,0.50224 l -0.0707,0.10854 -8.98911,-0.004 -8.9891,-0.004 -0.10645,-0.13222 c -0.0585,-0.0727 -0.1781,-0.20165 -0.26568,-0.28651 -0.61823,-0.59906 -1.44985,-0.95105 -2.55298,-1.08055 -0.28746,-0.0337 -0.9268,-0.041 -1.17347,-0.0133 -1.48718,0.16694 -2.94936,0.62403 -4.85449,1.51754 -0.40455,0.18973 -1.23944,0.60648 -1.99144,0.99404 -1.68297,0.86736 -2.33163,1.18571 -3.20508,1.57302 -1.80041,0.79833 -3.46651,1.28466 -5.09594,1.48747 -1.0193,0.12688 -1.8909303,0.14339 -3.1916699,0.0605 -2.11938,-0.13507 -3.87063,-0.72613 -5.04883,-1.70402 -1.1586,-0.96162 -2.00377998,-2.64331 -2.09861998,-4.17567 -0.0142,-0.22895 -0.004,-0.49745 0.0198,-0.5051 0.007,-0.002 0.0374,0.0424 0.0667,0.0995 0.26726998,0.52075 0.72756998,1.14319 1.22067998,1.65065 1.49058,1.53398 3.59898,2.50701 5.98773,2.7634 0.5134196,0.0551 0.6616396,0.0616 1.4013896,0.0616 0.7139303,0 0.8723003,-0.006 1.3745603,-0.0544 2.50634,-0.24017 5.24742,-1.12395 8.15994,-2.63093 0.57619,-0.29813 0.84069,-0.44143 1.8509,-1.00278 1.02572,-0.56996 1.45937,-0.80284 1.82751,-0.98141 0.94985,-0.460737 1.60068,-0.673099 2.40347,-0.784219 0.20296,-0.0281 0.93775,-0.0239 1.1734,0.007 0.23216,0.0301 0.53525,0.0889 0.76211,0.14788 l 0.17204,0.0447 -0.009,-0.0816 c -0.0604,-0.56582 -0.24348,-1.07054 -0.53967,-1.48779 -0.0425,-0.0599 -0.14068,-0.17263 -0.21813,-0.25049 -0.27346,-0.27494 -0.61537,-0.45555 -1.01781,-0.53767 -0.16893,-0.0345 -0.50058,-0.0471 -0.68537,-0.0262 -0.80884,0.0918 -1.70372,0.56872 -2.74906,1.46508 -0.26819,0.22998 -0.4825,0.42861 -0.90179,0.83583 -0.60122,0.583922 -0.84982,0.811329 -0.88694,0.811329 -0.0271,0 0.005,-0.0552 0.10363,-0.178807 0.52757,-0.660692 0.78842,-1.216252 0.88575,-1.886392 0.0331,-0.22819 0.0466,-0.38882 0.0821,-0.97771 0.0415,-0.688 0.0625,-0.93619 0.11451,-1.3536 0.0703,-0.56386 0.15743,-1.05329 0.29577,-1.66139 0.0733,-0.32197 0.25785,-1.03784 0.27463,-1.06499 0.009,-0.0144 0.0193,-0.0151 -0.15834,0.01 -0.82163,0.11386 -1.62046,0.51192 -2.20316,1.09785 -0.26109,0.26253 -0.45887,0.54137 -0.64273,0.90615 -0.19231,0.38154 -0.29406,0.67062 -0.55826,1.586 -0.30535,1.05797 -0.4571,1.47622 -0.74214,2.04556 -0.28664,0.57252 -0.5391,0.936062 -0.90608,1.304742 -0.28721,0.288527 -0.54573,0.481377 -0.85581,0.638407 -0.0923,0.0467 -0.16999,0.0828 -0.17269,0.0801 -0.003,-0.003 0.029,-0.0767 0.0705,-0.16453 0.25729,-0.54447 0.43154,-1.004347 0.58887,-1.554179 0.46499,-1.62501 0.47015,-3.2764 0.0146,-4.67622 -0.32462,-0.99753 -0.89572,-1.88833 -1.61718,-2.52243 -0.85962,-0.75553 -1.92644,-1.22646 -3.0778,-1.35864 -0.27516,-0.0316 -0.80158,-0.0317 -1.06383,-5e-4 -0.62705,0.0751 -1.1193403,0.22159 -1.6785903,0.49946 -0.9504796,0.47226 -1.7541996,1.22915 -2.3377696,2.20156 -0.41769,0.69601 -0.68645,1.45946 -0.79412,2.25579 -0.0299,0.22082 -0.0418,0.83889 -0.0207,1.06992 0.0998,1.09119 0.54111,2.01977 1.31757,2.77215 0.40787,0.395212 0.82245,0.662592 1.2851796,0.828849 1.17368,0.42172 2.4732303,0.12339 2.9983103,-0.688319 0.091,-0.1406 0.0995,-0.14263 0.0995,-0.0236 0,0.610632 -0.70392,1.227739 -1.6628903,1.457829 -0.30616,0.0735 -0.44081,0.0877 -0.83144,0.0879 -0.37894,5.1e-4 -0.46358,-0.008 -0.7912096,-0.0738 -0.70857,-0.14301 -1.36941,-0.47007 -1.96462,-0.972297 -0.16869,-0.14234 -0.48961,-0.465652 -0.63864,-0.643392 -0.86974,-1.03732 -1.463,-2.4879 -1.66733,-4.07676 -0.0648,-0.50406 -0.0912,-1.23728 -0.0623,-1.72994 0.11172,-1.90276 0.74538,-3.57829 1.83339,-4.84785 0.16646,-0.19424 0.53738,-0.56718 0.69581,-0.6996 0.87467,-0.73107 1.9436096,-1.21045 2.9569896,-1.32609 0.17789,-0.0203 0.5861103,-0.0203 0.7442703,0 0.61078,0.0784 1.10694,0.31839 1.50303,0.7271 0.14368,0.14825 0.21646,0.23539 0.46256,0.55386 0.43513,0.56308 0.7081,0.77024 1.17915,0.89487 0.20134,0.0533 0.51312,0.0674 0.70233,0.0317 0.45361,-0.0854 0.79098,-0.37003 0.93273,-0.78691 0.0567,-0.16673 0.0726,-0.29087 0.0645,-0.50402 -0.0104,-0.27572 -0.0787,-0.49979 -0.22163,-0.7267 -0.16853,-0.26763 -0.37148,-0.45454 -0.67671,-0.62324 -0.0894,-0.0494 -0.11274,-0.0757 -0.0671,-0.0754 0.0129,0 0.0879,0.0147 0.16668,0.0326 1.36157,0.30887 3.24425,1.43492 4.11473,2.46106 0.0691,0.0814 0.12999,0.14805 0.13536,0.14805 0.0223,0 0.10457,-0.42164 0.13995,-0.71745 0.028,-0.2344 0.0386,-0.69055 0.022,-0.94543 -0.007,-0.11432 -0.0112,-0.21026 -0.008,-0.21321 0.003,-0.003 0.0975,0.0224 0.2101,0.0564 0.73297,0.22097 1.2918,0.31017 1.94139,0.30989 0.48704,0 0.84719,-0.048 1.25071,-0.16602 0.90307,-0.26407 1.61848,-0.83541 2.0324,-1.6231 0.25378,-0.48294 0.39483,-1.13658 0.353,-1.63583 -0.0779,-0.93004 -0.52525,-1.66809 -1.12837,-1.86171 -0.157,-0.0504 -0.24137,-0.0598 -0.47194,-0.0524 -0.24933,0.008 -0.36333,0.0324 -0.54054,0.11592 -0.21092,0.0994 -0.32855,0.21856 -0.32855,0.33287 0,0.0492 0.007,0.0663 0.0409,0.0978 0.0608,0.0568 0.16194,0.0883 0.33862,0.10541 0.37117,0.0359 0.58489,0.12031 0.76759,0.303 0.14698,0.14699 0.23875,0.31369 0.28936,0.52567 0.0373,0.15604 0.0305,0.43928 -0.0143,0.5932 -0.12452,0.42868 -0.44017,0.74783 -0.9001,0.91004 -0.50527,0.17821 -1.13753,0.0669 -1.90334,-0.33494 -0.53329,-0.27986 -0.9726,-0.57768 -2.17248,-1.47276 -1.32557,-0.98883 -1.83414,-1.32855 -2.46697,-1.64792 -0.65827,-0.3322 -1.16111,-0.47398 -1.68354,-0.4747 -0.49459,-7.1e-4 -0.90595,0.12999 -1.3006,0.41314 -0.0563,0.0404 -0.10414,0.0735 -0.10625,0.0735 -0.002,0 -0.008,-0.083 -0.0124,-0.1844 -0.0122,-0.26142 -0.0677,-0.48368 -0.1734,-0.69398 -0.16243,-0.3233 -0.47939,-0.62006 -0.8442,-0.7904 -0.13189,-0.0616 -0.39494,-0.15057 -0.40762,-0.13789 -0.004,0.004 2e-4,0.0867 0.01,0.18355 0.0258,0.2637 -0.005,0.37342 -0.16035,0.56587 -0.21334,0.26479 -0.75979,0.66932 -1.6448203,1.21766 -0.6301,0.39039 -0.72825,0.45286 -0.92512,0.58884 -0.6607696,0.45637 -1.1791696,0.89095 -1.7847996,1.49621 -0.41747,0.41721 -0.59677,0.61522 -0.89326,0.98644 -0.28469,0.35645 -0.29829,0.37183 -0.30372,0.34363 -0.007,-0.0366 0.15554,-0.35404 0.28395,-0.5544 0.42993,-0.67079 0.97967,-1.35524 2.14111,-2.66576 0.4793096,-0.54083 0.7629296,-0.86896 0.9736596,-1.12647 0.9450603,-1.15485 1.3449303,-2.00468 1.4408403,-3.0622 0.0211,-0.23197 0.009,-0.84274 -0.0206,-1.08831 -0.0503,-0.41036 -0.13953,-0.85449 -0.24925,-1.24046 -0.0885,-0.31128 -0.22506,-0.69063 -0.24863,-0.69063 -0.01,0 -0.0633,0.0181 -0.1188803,0.0401 -0.57446,0.2282 -0.93674,0.60712 -1.15403,1.20703 -0.0654,0.18058 -0.0816,0.2001 -0.0931,0.11242 -0.0336,-0.25535 -0.0926,-0.45879 -0.19595,-0.67528 -0.2535196,-0.53127 -0.6998396,-0.92562 -1.2459296,-1.10086 l -0.15422,-0.0495 -0.003,-9.08599 -0.003,-9.086008 0.0873,-0.0623 c 0.21364,-0.15245 0.34282,-0.33189 0.41715,-0.57944 0.03,-0.0999 0.0356,-0.14441 0.0361,-0.28594 4.1e-4,-0.11379 -0.007,-0.19725 -0.0221,-0.25984 -0.11754,-0.47834 -0.50217,-0.79197 -1.00817,-0.82209 -0.49346,-0.0294 -0.91827,0.29658 -1.06058,0.81375 -0.0337,0.12254 -0.0341,0.41561 -6.4e-4,0.53639 0.0749,0.27075 0.25528,0.49997 0.51114,0.6496 l 0.0877,0.0513 v 9.108268 9.10824 l -0.0302,0.0262 c -0.0166,0.0144 -0.0754,0.0562 -0.13075,0.0928 -0.13553,0.0898 -0.32538,0.28199 -0.42147,0.42659 -0.20569,0.30953 -0.30056,0.70569 -0.26279,1.09732 0.0154,0.15946 0.0583,0.35991 0.0972,0.45375 0.0187,0.0452 0.0197,0.0401 0.0272,-0.13411 0.0113,-0.26586 0.0585,-0.44889 0.16042,-0.62167 0.19656,-0.33337 0.60137,-0.51477 1.0389,-0.46554 0.42689,0.048 0.80401,0.26164 1.0533,0.59659 0.17281,0.23218 0.31396,0.62024 0.39942,1.09816 0.11362,0.6353 0.0115,1.49936 -0.28476,2.40923 -0.18314,0.56248 -0.42342,1.11822 -0.82067,1.89813 -0.21831,0.42861 -0.39167,0.74994 -1.0093,1.87075 -0.32249,0.58523 -0.49092,0.89762 -0.71579,1.32763 -1.60703,3.07296 -2.33525,5.70919 -2.42124,8.76509 l -0.009,0.32326 -0.16905,0.008 c -0.65117,0.0293 -1.26904,0.37238 -1.71239998,0.95078 -0.51317,0.66949 -0.78378,1.59051 -0.78321,2.66562 3.1e-4,0.53585 0.0777,1.1967 0.18773,1.60365 0.0426,0.15757 0.0457,0.12664 -0.0418,0.41393 -0.10955,0.35925 -0.17836,0.684252 -0.22033,1.040662 -0.0202,0.171937 -0.0367,0.806317 -0.0248,0.958837 z m 0.72215,-4.633289 c 0.0786,-0.58156 0.30556998,-1.03063 0.66699998,-1.31981 0.22896,-0.18319 0.46775,-0.27429 0.74933,-0.28588 0.19979,-0.008 0.33449,0.0141 0.50624,0.0837 0.12528,0.0508 0.30395,0.15712 0.31574,0.18786 0.004,0.0111 0.0259,0.11036 0.0482,0.22057 0.16354,0.81059 0.42896,1.65046 0.74264,2.34989 0.54824,1.22246 1.29688,2.205842 2.23499,2.935809 0.80355,0.62527 1.77454,1.02944 2.6686696,1.11081 0.19482,0.0177 0.36286,0.018 0.58,8.1e-4 0.094,-0.007 0.25094,-0.0199 0.34866,-0.0277 1.0893803,-0.0871 2.0847003,-0.66363 2.6111803,-1.51249 0.30332,-0.489057 0.44848,-1.046219 0.40274,-1.545819 -0.0327,-0.35692 -0.11731,-0.66627 -0.26189,-0.95731 -0.10984,-0.22111 -0.23316,-0.39458 -0.39644,-0.55765 -0.31046,-0.31004 -0.68825,-0.48166 -1.06032,-0.48166 -0.15517,0 -0.28522,0.0295 -0.42694,0.0968 -0.0939,0.0446 -0.13422,0.0746 -0.22852,0.16978 -0.14137,0.14273 -0.22074,0.29141 -0.2765303,0.51795 -0.0313,0.12701 -0.0364,0.17548 -0.0365,0.34867 -3.1e-4,0.46986 0.1395103,0.67871 0.5213803,0.77895 0.0758,0.0199 0.1461,0.0247 0.3654,0.0252 0.14934,5e-4 0.27154,0.005 0.27156,0.0114 0,0.006 -0.0205,0.0554 -0.0456,0.10963 -0.17876,0.38689 -0.56398,0.65805 -1.0996003,0.77403 -0.19696,0.0426 -0.59616,0.0421 -0.79931,-0.001 -0.43552,-0.0927 -0.7821996,-0.27596 -1.0812496,-0.57158 -0.22933,-0.22669 -0.37546,-0.44293 -0.52561,-0.7778 -0.49008,-1.09296 -0.4413,-2.13312 0.14212,-3.03074 0.62123,-0.95578 1.8217096,-1.62987 3.1182999,-1.75096 0.24724,-0.0231 0.75694,-0.009 0.98158,0.0266 0.68015,0.10869 1.25942,0.36827 1.76514,0.79098 0.17459,0.14594 0.49129,0.47492 0.63419,0.6588 0.51602,0.66396 0.89174,1.49107 1.07395,2.3642 0.1004,0.4811 0.13364,0.84681 0.1236,1.35987 -0.008,0.3848 -0.0249,0.57373 -0.084,0.91555 -0.14047,0.811499 -0.46819,1.588739 -0.93407,2.215219 -0.89592,1.20478 -2.35018,2.00206 -4.11565,2.25635 -0.4310103,0.0621 -0.6931103,0.0796 -1.1988403,0.08 -0.49621,5.1e-4 -0.6998896,-0.0115 -1.1465896,-0.067 -2.4981,-0.31048 -4.71413,-1.59851 -5.97742,-3.47424 -0.61198,-0.908669 -0.99512998,-1.925209 -1.14906998,-3.048659 -0.0453,-0.33032 -0.0435,-0.30757 -0.0457,-0.59006 -0.001,-0.15024 0.006,-0.30363 0.0172,-0.3889 z"
       style="fill:#000000;stroke-width:0.01341037" />
    <path
       style="fill:#000000;stroke-width:0.01341037"
       d="m 101.2289,100.92374 c -0.0586,0.75403 -0.20907,1.37889 -0.49084,2.03838 -0.35472,0.83019 -0.876417,1.54493 -1.544634,2.11615 -0.79488,0.6795 -1.69083,1.17222 -2.84472,1.56444 -1.45555,0.49476 -3.11859,0.73152 -4.79886,0.6832 -0.80272,-0.0231 -1.34403,-0.0797 -2.2346,-0.23362 -1.03254,-0.17848 -1.60787,-0.23408 -2.23106,-0.21561 -0.67561,0.02 -1.1081,0.089 -1.98259,0.31617 -0.93082,0.24182 -1.24815,0.29498 -1.76067,0.29499 -0.56309,2e-5 -1.10087,-0.0705 -1.89086,-0.24812 -0.70486,-0.15844 -0.81927,-0.18292 -1.01025,-0.2161 -0.24148,-0.042 -0.57472,-0.0558 -0.79325,-0.0329 -0.083,0.009 -0.1533,0.0135 -0.15613,0.0107 -0.0102,-0.0102 0.14838,-0.26037 0.25665,-0.40506 0.4585,-0.61276 1.16193,-1.07876 1.85923,-1.23167 0.25526,-0.056 0.37897,-0.0686 0.6774,-0.0688 0.21458,0 0.28066,-0.004 0.27086,-0.0159 -0.0219,-0.0264 -0.27755,-0.13259 -0.45872,-0.19051 -0.51213,-0.16373 -0.99862,-0.16832 -1.51683,-0.0143 -0.26106,0.0776 -0.47221,0.16541 -1.05335,0.43816 -0.77966,0.36593 -1.18455,0.49842 -1.7116,0.56007 -0.19963,0.0233 -0.62267,0.0265 -0.82489,0.006 -0.44427,-0.0447 -0.96236,-0.17706 -1.46315,-0.37394 -0.16655,-0.0655 -0.15652,-0.0305 -0.081,-0.28261 0.27229,-0.90884 0.78717,-1.556 1.53262,-1.9264 0.27953,-0.13889 0.58704,-0.2332 0.94148,-0.28874 0.16681,-0.0262 0.24401,-0.0301 0.59405,-0.0303 0.35317,0 0.42655,0.004 0.60092,0.0305 0.10924,0.0169 0.20519,0.0285 0.21322,0.0258 0.0263,-0.009 -0.20847,-0.14679 -0.48313,-0.28411 -0.90358,-0.45179 -1.97759,-0.79937 -2.87899,-0.93173 -0.49312,-0.0724 -1.03251,-0.0898 -1.50196,-0.0484 -1.24835,0.1101 -2.00076,0.42372 -2.27329,0.94755 -0.11695,0.2248 -0.14074,0.47683 -0.0661,0.69977 0.0508,0.15164 0.0889,0.21882 0.24273,0.4275 0.18963,0.25734 0.2346,0.36812 0.2223,0.54767 -0.0127,0.18549 -0.11822,0.33616 -0.30358,0.43357 -0.13545,0.0712 -0.24434,0.0925 -0.43713,0.0856 -0.13629,-0.005 -0.18016,-0.0123 -0.28651,-0.0485 -0.24897,-0.0847 -0.45862,-0.24248 -0.62829,-0.47271 -0.22451,-0.30466 -0.38835,-0.76902 -0.423,-1.19888 l -0.003,-0.0402 h -8.86885 -8.86879 l -0.0223,0.0288 c -0.0123,0.0158 -0.0516,0.069 -0.0873,0.1181 -0.1155,0.15854 -0.31278,0.28707 -0.52935,0.34488 -0.1425,0.038 -0.43455,0.049 -0.54554,0.0206 -0.27283,-0.07 -0.49138,-0.22181 -0.63031,-0.43778 -0.11581,-0.18004 -0.16564,-0.34452 -0.17695,-0.58413 -0.006,-0.13627 -0.003,-0.17839 0.0208,-0.27491 0.0903,-0.36256 0.36388,-0.64797 0.73291,-0.76455 0.12744,-0.0403 0.3919,-0.0516 0.51697,-0.0221 0.28604,0.0673 0.5258,0.24021 0.69646,0.50224 l 0.0707,0.10854 8.98911,-0.004 8.98912,-0.004 0.10645,-0.13222 c 0.0585,-0.0727 0.1781,-0.20165 0.26568,-0.28651 0.61823,-0.59906 1.44985,-0.95104 2.55298,-1.08054 0.28746,-0.0337 0.9268,-0.041 1.17347,-0.0133 1.48718,0.16694 2.94936,0.62402 4.85449,1.51753 0.40455,0.18973 1.23944,0.60647 1.99144,0.99403 1.68297,0.86736 2.33163,1.18571 3.20508,1.57302 1.80041,0.79833 3.46651,1.28466 5.09594,1.48747 1.0193,0.12688 1.89093,0.14339 3.19167,0.0605 2.11938,-0.13507 3.87063,-0.72613 5.04883,-1.70402 1.1586,-0.96162 2.003774,-2.6433 2.098614,-4.17565 0.0142,-0.22895 0.004,-0.49745 -0.0198,-0.5051 -0.007,-0.002 -0.0374,0.0424 -0.0667,0.0995 -0.26727,0.52075 -0.727567,1.14318 -1.220674,1.65064 -1.49058,1.53397 -3.59898,2.507 -5.98773,2.76339 -0.51342,0.0551 -0.66164,0.0616 -1.40139,0.0616 -0.71393,0 -0.8723,-0.006 -1.37456,-0.0544 -2.50634,-0.24017 -5.24742,-1.12395 -8.15994,-2.63092 -0.57619,-0.29813 -0.84069,-0.44143 -1.8509,-1.00277 -1.02572,-0.56996 -1.45937,-0.80284 -1.82751,-0.98141 -0.94985,-0.460737 -1.60068,-0.673097 -2.40347,-0.784217 -0.20296,-0.0281 -0.93775,-0.0239 -1.1734,0.007 -0.23216,0.0301 -0.53525,0.0889 -0.76211,0.14788 l -0.17204,0.0447 0.009,-0.0816 c 0.0604,-0.56582 0.24348,-1.07054 0.53967,-1.48779 0.0425,-0.0599 0.14068,-0.17263 0.21813,-0.25049 0.27346,-0.27494 0.61537,-0.45555 1.01781,-0.53767 0.16893,-0.0345 0.50058,-0.0471 0.68537,-0.0262 0.80884,0.0918 1.70372,0.56872 2.74906,1.46508 0.26819,0.22998 0.4825,0.42861 0.90179,0.83583 0.60122,0.58392 0.84982,0.811327 0.88694,0.811327 0.0271,0 -0.005,-0.0552 -0.10363,-0.178807 -0.52757,-0.66069 -0.78842,-1.21625 -0.88575,-1.88639 -0.0331,-0.22819 -0.0466,-0.38882 -0.0821,-0.97771 -0.0415,-0.688 -0.0625,-0.93619 -0.11451,-1.3536 -0.0703,-0.56386 -0.15743,-1.05329 -0.29577,-1.66139 -0.0733,-0.32197 -0.25785,-1.03784 -0.27463,-1.06499 -0.009,-0.0144 -0.0193,-0.0151 0.15834,0.01 0.82163,0.11386 1.62046,0.51192 2.20316,1.09785 0.26109,0.26253 0.45887,0.54137 0.64273,0.90615 0.19231,0.38154 0.29406,0.67062 0.55826,1.586 0.30535,1.05797 0.4571,1.47622 0.74214,2.04556 0.28664,0.57252 0.5391,0.93606 0.90608,1.30474 0.28721,0.288527 0.54573,0.481377 0.85581,0.638407 0.0923,0.0467 0.16999,0.0828 0.17269,0.0801 0.003,-0.003 -0.029,-0.0767 -0.0705,-0.16453 -0.25729,-0.54447 -0.43154,-1.004347 -0.58887,-1.554177 -0.46499,-1.62501 -0.47015,-3.2764 -0.0146,-4.67622 0.32462,-0.99753 0.89572,-1.88833 1.61718,-2.52243 0.85962,-0.75553 1.92644,-1.22646 3.0778,-1.35864 0.27516,-0.0316 0.80158,-0.0317 1.06383,-5e-4 0.62705,0.0751 1.11934,0.22159 1.67859,0.49946 0.95048,0.47226 1.7542,1.22915 2.33777,2.20156 0.41769,0.69601 0.68645,1.45946 0.79412,2.25579 0.0299,0.22082 0.0418,0.83889 0.0207,1.06992 -0.0998,1.09119 -0.54111,2.01977 -1.31757,2.77215 -0.40787,0.39521 -0.82245,0.66259 -1.28518,0.828847 -1.17368,0.42172 -2.47323,0.12339 -2.99831,-0.688317 -0.091,-0.1406 -0.0995,-0.14263 -0.0995,-0.0236 0,0.61063 0.70392,1.227737 1.66289,1.457827 0.30616,0.0735 0.44081,0.0877 0.83144,0.0879 0.37894,5.1e-4 0.46358,-0.008 0.79121,-0.0738 0.70857,-0.14301 1.36941,-0.47007 1.96462,-0.972297 0.16869,-0.14234 0.48961,-0.46565 0.63864,-0.64339 0.86974,-1.03732 1.463,-2.4879 1.66733,-4.07676 0.0648,-0.50406 0.0912,-1.23728 0.0623,-1.72994 -0.11172,-1.90276 -0.74538,-3.57829 -1.83339,-4.84785 -0.16646,-0.19424 -0.53738,-0.56718 -0.69581,-0.6996 -0.87467,-0.73107 -1.94361,-1.21045 -2.95699,-1.32609 -0.17789,-0.0203 -0.58611,-0.0203 -0.74427,0 -0.61078,0.0784 -1.10694,0.31839 -1.50303,0.7271 -0.14368,0.14825 -0.21646,0.23539 -0.46256,0.55386 -0.43513,0.56308 -0.7081,0.77024 -1.17915,0.89487 -0.20134,0.0533 -0.51312,0.0674 -0.70233,0.0317 -0.45361,-0.0854 -0.79098,-0.37003 -0.93273,-0.78691 -0.0567,-0.16673 -0.0726,-0.29087 -0.0645,-0.50402 0.0104,-0.27572 0.0787,-0.49979 0.22163,-0.7267 0.16853,-0.26763 0.37148,-0.45454 0.67671,-0.62324 0.0894,-0.0494 0.11274,-0.0757 0.0671,-0.0754 -0.0129,0 -0.0879,0.0147 -0.16668,0.0326 -1.36157,0.30887 -3.24425,1.43492 -4.11473,2.46106 -0.0691,0.0814 -0.12999,0.14805 -0.13536,0.14805 -0.0223,0 -0.10457,-0.42164 -0.13995,-0.71745 -0.028,-0.2344 -0.0386,-0.69055 -0.022,-0.94543 0.007,-0.11432 0.0112,-0.21026 0.008,-0.21321 -0.003,-0.003 -0.0975,0.0224 -0.2101,0.0564 -0.73297,0.22097 -1.2918,0.31017 -1.94139,0.30989 -0.48704,0 -0.84719,-0.048 -1.25071,-0.16602 -0.90307,-0.26407 -1.61848,-0.83541 -2.0324,-1.6231 -0.25378,-0.48294 -0.39483,-1.13658 -0.353,-1.63583 0.0779,-0.93004 0.52525,-1.66809 1.12837,-1.86171 0.157,-0.0504 0.24137,-0.0598 0.47194,-0.0524 0.24933,0.008 0.36333,0.0324 0.54054,0.11592 0.21092,0.0994 0.32855,0.21856 0.32855,0.33287 0,0.0492 -0.007,0.0663 -0.0409,0.0978 -0.0608,0.0568 -0.16194,0.0883 -0.33862,0.10541 -0.37117,0.0359 -0.58489,0.12031 -0.76759,0.303 -0.14698,0.14699 -0.23875,0.31369 -0.28936,0.52567 -0.0373,0.15604 -0.0305,0.43928 0.0143,0.5932 0.12452,0.42868 0.44017,0.74783 0.9001,0.91004 0.50527,0.17821 1.13753,0.0669 1.90334,-0.33494 0.53329,-0.27986 0.9726,-0.57768 2.17248,-1.47276 1.32557,-0.98883 1.83414,-1.32855 2.46697,-1.64792 0.65827,-0.3322 1.16111,-0.47398 1.68354,-0.4747 0.49459,-7.1e-4 0.90595,0.12999 1.3006,0.41314 0.0563,0.0404 0.10414,0.0735 0.10625,0.0735 0.002,0 0.008,-0.083 0.0124,-0.1844 0.0122,-0.26142 0.0677,-0.48368 0.1734,-0.69398 0.16243,-0.3233 0.47939,-0.62006 0.8442,-0.7904 0.13189,-0.0616 0.39494,-0.15057 0.40762,-0.13789 0.004,0.004 -2e-4,0.0867 -0.01,0.18355 -0.0258,0.2637 0.005,0.37342 0.16035,0.56587 0.21334,0.26479 0.75979,0.66932 1.64482,1.21766 0.6301,0.39039 0.72825,0.45286 0.92512,0.58884 0.66077,0.45637 1.17917,0.89095 1.7848,1.49621 0.41747,0.41721 0.59677,0.61522 0.89326,0.98644 0.28469,0.35645 0.29829,0.37183 0.30372,0.34363 0.007,-0.0366 -0.15554,-0.35404 -0.28395,-0.5544 -0.42993,-0.67079 -0.97967,-1.35524 -2.14111,-2.66576 -0.47931,-0.54083 -0.76293,-0.86896 -0.97366,-1.12647 -0.94506,-1.15485 -1.34493,-2.00468 -1.44084,-3.0622 -0.0211,-0.23197 -0.009,-0.84274 0.0206,-1.08831 0.0503,-0.41036 0.13953,-0.85449 0.24925,-1.24046 0.0885,-0.31128 0.22506,-0.69063 0.24863,-0.69063 0.01,0 0.0633,0.0181 0.11888,0.0401 0.57446,0.2282 0.93674,0.60712 1.15403,1.20703 0.0654,0.18058 0.0816,0.2001 0.0931,0.11242 0.0336,-0.25535 0.0926,-0.45879 0.19595,-0.67528 0.25352,-0.53127 0.69984,-0.92562 1.24593,-1.10086 l 0.15422,-0.0495 0.003,-9.08599 0.003,-9.08601 -0.0873,-0.0623 c -0.21364,-0.15245 -0.34282,-0.33189 -0.41715,-0.57944 -0.03,-0.0999 -0.0356,-0.14441 -0.0361,-0.28594 -4.1e-4,-0.11379 0.007,-0.19725 0.0221,-0.25984 0.11754,-0.47834 0.50217,-0.79197 1.00817,-0.82209 0.49346,-0.0294 0.91827,0.29658 1.06058,0.81375 0.0337,0.12254 0.0341,0.41561 6.4e-4,0.53639 -0.0749,0.27075 -0.25528,0.49997 -0.51114,0.6496 l -0.0877,0.0513 v 9.10827 9.10824 l 0.0302,0.0262 c 0.0166,0.0144 0.0754,0.0562 0.13075,0.0928 0.13553,0.0898 0.32538,0.28199 0.42147,0.42659 0.20569,0.30953 0.30056,0.70569 0.26279,1.09732 -0.0154,0.15946 -0.0583,0.35991 -0.0972,0.45375 -0.0187,0.0452 -0.0197,0.0401 -0.0272,-0.13411 -0.0113,-0.26586 -0.0585,-0.44889 -0.16042,-0.62167 -0.19656,-0.33337 -0.60137,-0.51477 -1.0389,-0.46554 -0.42689,0.048 -0.80401,0.26164 -1.0533,0.59659 -0.17281,0.23218 -0.31396,0.62024 -0.39942,1.09816 -0.11362,0.6353 -0.0115,1.49936 0.28476,2.40923 0.18314,0.56248 0.42342,1.11822 0.82067,1.89813 0.21831,0.42861 0.39167,0.74994 1.0093,1.87075 0.32249,0.58523 0.49092,0.89762 0.71579,1.32763 1.60703,3.07296 2.33525,5.70919 2.42124,8.76509 l 0.009,0.32326 0.16905,0.008 c 0.65117,0.0293 1.269037,0.37238 1.712394,0.95078 0.51317,0.66949 0.78378,1.59051 0.78321,2.66562 -3.1e-4,0.53585 -0.0777,1.1967 -0.18773,1.60365 -0.0426,0.15757 -0.0457,0.12664 0.0418,0.41393 0.10955,0.35925 0.17836,0.68425 0.22033,1.04066 0.0202,0.171937 0.0367,0.806317 0.0248,0.958837 z m -0.72215,-4.633287 c -0.0786,-0.58156 -0.30557,-1.03063 -0.666997,-1.31981 -0.22896,-0.18319 -0.467747,-0.27429 -0.749327,-0.28588 -0.19979,-0.008 -0.33449,0.0141 -0.50624,0.0837 -0.12528,0.0508 -0.30395,0.15712 -0.31574,0.18786 -0.004,0.0111 -0.0259,0.11036 -0.0482,0.22057 -0.16354,0.81059 -0.42896,1.65046 -0.74264,2.34989 -0.54824,1.22246 -1.29688,2.20584 -2.23499,2.935807 -0.80355,0.62526 -1.77454,1.02943 -2.66867,1.1108 -0.19482,0.0177 -0.36286,0.018 -0.58,8.1e-4 -0.094,-0.007 -0.25094,-0.0199 -0.34866,-0.0277 -1.08938,-0.0871 -2.0847,-0.66362 -2.61118,-1.51248 -0.30332,-0.489057 -0.44848,-1.046217 -0.40274,-1.545817 0.0327,-0.35692 0.11731,-0.66627 0.26189,-0.95731 0.10984,-0.22111 0.23316,-0.39458 0.39644,-0.55765 0.31046,-0.31004 0.68825,-0.48166 1.06032,-0.48166 0.15517,0 0.28522,0.0295 0.42694,0.0968 0.0939,0.0446 0.13422,0.0746 0.22852,0.16978 0.14137,0.14273 0.22074,0.29141 0.27653,0.51795 0.0313,0.12701 0.0364,0.17548 0.0365,0.34867 3.1e-4,0.46986 -0.13951,0.67871 -0.52138,0.77895 -0.0758,0.0199 -0.1461,0.0247 -0.3654,0.0252 -0.14934,5e-4 -0.27154,0.005 -0.27156,0.0114 0,0.006 0.0205,0.0554 0.0456,0.10963 0.17876,0.38689 0.56398,0.65805 1.0996,0.77403 0.19696,0.0426 0.59616,0.0421 0.79931,-0.001 0.43552,-0.0927 0.7822,-0.27596 1.08125,-0.57158 0.22933,-0.22669 0.37546,-0.44293 0.52561,-0.7778 0.49008,-1.09296 0.4413,-2.13312 -0.14212,-3.03074 -0.62123,-0.95578 -1.82171,-1.62987 -3.1183,-1.75096 -0.24724,-0.0231 -0.75694,-0.009 -0.98158,0.0266 -0.68015,0.10869 -1.25942,0.36827 -1.76514,0.79098 -0.17459,0.14594 -0.49129,0.47492 -0.63419,0.6588 -0.51602,0.66396 -0.89174,1.49107 -1.07395,2.3642 -0.1004,0.4811 -0.13364,0.84681 -0.1236,1.35987 0.008,0.3848 0.0249,0.57373 0.084,0.91555 0.14047,0.811497 0.46819,1.588737 0.93407,2.215207 0.89592,1.20477 2.35018,2.00205 4.11565,2.25634 0.43101,0.0621 0.69311,0.0796 1.19884,0.08 0.49621,5.1e-4 0.69989,-0.0115 1.14659,-0.067 2.4981,-0.31048 4.71413,-1.5985 5.97742,-3.47422 0.611977,-0.908667 0.995124,-1.925207 1.149064,-3.048657 0.0453,-0.33032 0.0435,-0.30757 0.0457,-0.59006 0.001,-0.15024 -0.006,-0.30363 -0.0172,-0.3889 z"
       id="path119" />
  </g>
</svg>
