<?xml version="1.0" encoding="UTF-8" standalone="no"?>
<svg
   xmlns:dc="http://purl.org/dc/elements/1.1/"
   xmlns:cc="http://creativecommons.org/ns#"
   xmlns:rdf="http://www.w3.org/1999/02/22-rdf-syntax-ns#"
   xmlns:svg="http://www.w3.org/2000/svg"
   xmlns="http://www.w3.org/2000/svg"
   xmlns:sodipodi="http://sodipodi.sourceforge.net/DTD/sodipodi-0.dtd"
   xmlns:inkscape="http://www.inkscape.org/namespaces/inkscape"
   width="150mm"
   height="150mm"
   viewBox="0 0 150 150"
   version="1.1"
   id="svg107"
   sodipodi:docname="hero-border.svg"
   inkscape:version="0.92.5 (2060ec1f9f, 2020-04-08)">
  <sodipodi:namedview
     pagecolor="#ffffff"
     bordercolor="#666666"
     borderopacity="1"
     objecttolerance="10"
     gridtolerance="10"
     guidetolerance="10"
     inkscape:pageopacity="0"
     inkscape:pageshadow="2"
     inkscape:window-width="1600"
     inkscape:window-height="835"
     id="namedview847"
     showgrid="false"
     inkscape:zoom="0.82154272"
     inkscape:cx="326.45642"
     inkscape:cy="327.13648"
     inkscape:window-x="0"
     inkscape:window-y="0"
     inkscape:window-maximized="1"
     inkscape:current-layer="layer1"
     fit-margin-top="0"
     fit-margin-left="0"
     fit-margin-right="0"
     fit-margin-bottom="0"
     showguides="true"
     inkscape:guide-bbox="true">
    <sodipodi:guide
       position="50.000001,64.674887"
       orientation="1,0"
       id="guide5115"
       inkscape:locked="false"
       inkscape:label=""
       inkscape:color="rgb(0,0,255)" />
    <sodipodi:guide
       position="100,56.021205"
       orientation="1,0"
       id="guide5117"
       inkscape:locked="false"
       inkscape:label=""
       inkscape:color="rgb(0,0,255)" />
    <sodipodi:guide
       position="39.852482,50"
       orientation="0,1"
       id="guide5119"
       inkscape:locked="false"
       inkscape:label=""
       inkscape:color="rgb(0,0,255)" />
    <sodipodi:guide
       position="40.08,99.999999"
       orientation="0,1"
       id="guide5121"
       inkscape:locked="false"
       inkscape:label=""
       inkscape:color="rgb(0,0,255)" />
  </sodipodi:namedview>
  <defs
     id="defs101" />
  <metadata
     id="metadata104">
    <rdf:RDF>
      <cc:Work
         rdf:about="">
        <dc:format>image/svg+xml</dc:format>
        <dc:type
           rdf:resource="http://purl.org/dc/dcmitype/StillImage" />
        <dc:title></dc:title>
      </cc:Work>
    </rdf:RDF>
  </metadata>
  <g
     style="fill:#c28f20;fill-opacity:1"
     id="layer1"
     transform="translate(0,42.512147)">
    <path
       style="opacity:1;fill:#c28f20;fill-opacity:1;stroke-width:0.00984493"
       d="m 0.00194851,-31.101913 c 0.0430199,-0.553554 0.15348411,-1.012281 0.3603393,-1.496431 0.26040981,-0.609466 0.64340429,-1.134176 1.13396319,-1.553525 0.5835434,-0.498839 1.2412853,-0.860559 2.088388,-1.148498 1.0685598,-0.363217 2.2894436,-0.537029 3.5229765,-0.501556 0.589299,0.01696 0.9866898,0.05851 1.6404816,0.171507 0.7580164,0.131026 1.1803822,0.171844 1.6378829,0.158285 0.495985,-0.01468 0.813488,-0.06534 1.455475,-0.232109 0.683341,-0.177527 0.916302,-0.216553 1.292557,-0.21656 0.41338,-1.5e-5 0.808179,0.05176 1.388133,0.182151 0.517457,0.116315 0.601449,0.134287 0.741652,0.158645 0.177277,0.03083 0.421918,0.04096 0.582348,0.02415 0.06094,-0.0066 0.112541,-0.0099 0.114619,-0.0079 0.0075,0.0075 -0.10893,0.191145 -0.188414,0.297365 -0.336598,0.449845 -0.853005,0.791948 -1.364913,0.904204 -0.187393,0.04111 -0.278212,0.05036 -0.497298,0.05051 -0.157529,0 -0.20604,0.0029 -0.198845,0.01167 0.01608,0.01938 0.203756,0.09734 0.336758,0.139859 0.375969,0.120199 0.733115,0.123568 1.113547,0.0105 0.191652,-0.05697 0.346663,-0.121432 0.773294,-0.321666 0.57237,-0.268639 0.869611,-0.365904 1.256531,-0.411162 0.146552,-0.01711 0.45712,-0.01946 0.605578,-0.0044 0.32615,0.03282 0.706496,0.129984 1.074139,0.274519 0.122268,0.04809 0.114907,0.02239 0.05945,0.207472 -0.1999,0.667205 -0.577884,1.142303 -1.125141,1.414223 -0.205209,0.101964 -0.430966,0.171199 -0.691167,0.211973 -0.12246,0.01923 -0.179134,0.0221 -0.436109,0.02225 -0.259271,0 -0.313141,-0.0029 -0.441152,-0.02239 -0.08019,-0.01241 -0.150635,-0.02093 -0.15653,-0.01894 -0.01931,0.0066 0.153043,0.107763 0.354679,0.208573 0.663343,0.331672 1.451807,0.58684 2.113544,0.684009 0.362014,0.05315 0.757995,0.06593 1.102633,0.03553 0.916451,-0.08083 1.468814,-0.311065 1.668883,-0.695623 0.08586,-0.165031 0.103323,-0.350054 0.04849,-0.51372 -0.03729,-0.111323 -0.06529,-0.160642 -0.17819,-0.31384 -0.139218,-0.188921 -0.17223,-0.270247 -0.163196,-0.40206 0.0093,-0.136173 0.08678,-0.246784 0.222863,-0.318295 0.09944,-0.05227 0.179377,-0.06791 0.320914,-0.06284 0.100049,0.0037 0.132254,0.009 0.210335,0.03561 0.182772,0.06218 0.336681,0.178012 0.461238,0.34703 0.164823,0.223659 0.285103,0.564559 0.310537,0.880131 l 0.0023,0.02951 h 6.510862 6.510828 l 0.01636,-0.02114 c 0.009,-0.0116 0.03785,-0.05065 0.06412,-0.0867 0.08479,-0.116388 0.229622,-0.210746 0.388608,-0.253185 0.104617,-0.0279 0.319017,-0.03597 0.400499,-0.01512 0.200295,0.05139 0.360738,0.162837 0.462726,0.321387 0.08502,0.132172 0.121601,0.252921 0.129907,0.428825 0.0047,0.10004 0.0023,0.130962 -0.01526,0.20182 -0.06627,0.266165 -0.267134,0.475692 -0.538051,0.561277 -0.09355,0.02959 -0.2877,0.03788 -0.379523,0.01623 -0.209991,-0.04941 -0.386,-0.176345 -0.511292,-0.368709 l -0.0519,-0.07969 -6.599155,0.0029 -6.599156,0.0029 -0.07814,0.09707 c -0.04298,0.05337 -0.130747,0.148037 -0.19504,0.210334 -0.453866,0.439787 -1.064381,0.698185 -1.874217,0.793255 -0.21103,0.02474 -0.680388,0.0301 -0.861474,0.0098 -1.091786,-0.122556 -2.16521,-0.458111 -3.563818,-1.114061 -0.296992,-0.139286 -0.909908,-0.445226 -1.461972,-0.729746 -1.235515,-0.636752 -1.711715,-0.870462 -2.352939,-1.154797 -1.32173,-0.586076 -2.5448608,-0.943105 -3.7410706,-1.091993 -0.7482965,-0.09315 -1.3881842,-0.105266 -2.3430936,-0.04442 -1.5558958,0.09916 -2.8415371,0.533073 -3.7064865,1.250969 -0.8505605,0.705951 -1.4710306,1.940519 -1.54065528,3.06546 -0.0104246,0.168078 -0.002936,0.365192 0.0145357,0.370808 0.005139,0.0015 0.0274564,-0.03112 0.0489663,-0.07304 0.19621028,-0.382298 0.53412928,-0.839241 0.89613508,-1.211781 1.0942762,-1.126129 2.6421113,-1.840458 4.395759,-2.028681 0.3769159,-0.04045 0.4857284,-0.04522 1.0287994,-0.04522 0.5241158,0 0.6403796,0.0044 1.0091026,0.03993 1.839974,0.176315 3.8522769,0.825123 5.9904389,1.931432 0.422997,0.218865 0.617174,0.324065 1.358797,0.736161 0.75301,0.418423 1.071364,0.589387 1.341626,0.72048 0.697313,0.338242 1.175107,0.494142 1.764451,0.575718 0.149003,0.02063 0.688435,0.01755 0.861431,-0.0051 0.17043,-0.0221 0.39294,-0.06526 0.55948,-0.108563 l 0.126306,-0.03282 -0.0064,0.05991 c -0.04435,0.415384 -0.178748,0.785913 -0.396188,1.092228 -0.03122,0.04397 -0.103281,0.126732 -0.160138,0.183891 -0.200756,0.201841 -0.451756,0.334432 -0.747204,0.394719 -0.124012,0.02533 -0.367489,0.03458 -0.503149,0.01923 -0.59379,-0.0674 -1.250745,-0.417513 -2.018159,-1.075556 -0.196885,-0.168834 -0.354216,-0.314654 -0.662029,-0.613606 -0.441372,-0.428672 -0.623876,-0.59562 -0.651127,-0.59562 -0.0199,0 0.0037,0.04052 0.07607,0.13127 0.387305,0.485031 0.578802,0.892883 0.650254,1.384851 0.0243,0.16752 0.03421,0.285444 0.06027,0.717764 0.03047,0.50508 0.04588,0.687283 0.08406,0.993716 0.05161,0.413944 0.115574,0.773249 0.217133,1.219672 0.05381,0.236367 0.189295,0.761907 0.201614,0.781839 0.0066,0.01057 0.01417,0.01109 -0.116242,-0.0073 -0.603181,-0.08359 -1.189625,-0.375815 -1.617401,-0.805962 -0.191673,-0.192731 -0.336869,-0.397435 -0.471846,-0.66523 -0.14118,-0.280099 -0.215877,-0.49232 -0.409834,-1.164327 -0.224166,-0.776684 -0.33557,-1.083733 -0.544826,-1.501702 -0.21043,-0.420303 -0.395768,-0.687188 -0.665178,-0.957846 -0.210849,-0.211818 -0.400636,-0.353395 -0.628274,-0.468674 -0.06776,-0.03429 -0.124795,-0.06079 -0.126777,-0.0588 -0.0022,0.0022 0.02129,0.05631 0.05176,0.120786 0.188884,0.399711 0.316807,0.737321 0.432307,1.140966 0.341362,1.192966 0.345149,2.405297 0.01072,3.432944 -0.238313,0.732315 -0.657573,1.386276 -1.187217,1.851786 -0.631071,0.554656 -1.4142525,0.900379 -2.2594981,0.997416 -0.2020027,0.0232 -0.5884622,0.02327 -0.7809872,3.67e-4 -0.46031,-0.05503 -0.8217137,-0.162574 -1.2322746,-0.366566 -0.6977739,-0.346699 -1.2878071,-0.902353 -1.716222,-1.616226 -0.3066378,-0.51096 -0.503942,-1.07143 -0.5829856,-1.656039 -0.02195,-0.16211 -0.030687,-0.615852 -0.015196,-0.785458 0.073266,-0.801073 0.3972439,-1.482769 0.9672648,-2.035112 0.2994286,-0.290135 0.6037834,-0.486426 0.9434863,-0.608482 0.8616311,-0.309596 1.8156668,-0.09058 2.201143,0.505315 0.066806,0.103218 0.073042,0.104709 0.073042,0.01732 0,-0.448281 -0.5167669,-0.901318 -1.2207733,-1.070233 -0.2247606,-0.05396 -0.3236109,-0.06438 -0.6103833,-0.06453 -0.2781903,-3.75e-4 -0.3403269,0.0059 -0.5808492,0.05418 -0.520181,0.104988 -1.005322,0.345091 -1.4422822,0.713793 -0.12384,0.104496 -0.3594363,0.341846 -0.4688433,0.47233 -0.6385004,0.761526 -1.074029,1.826437 -1.2240334,2.992863 -0.047571,0.370045 -0.066952,0.908322 -0.045736,1.269997 0.082017,1.396869 0.5472042,2.626922 1.3459426,3.558942 0.1222029,0.142597 0.3945056,0.416382 0.5108134,0.513595 0.6421196,0.536699 1.4268582,0.888625 2.1708087,0.973519 0.1305939,0.01491 0.4302795,0.01491 0.5463892,0 0.4483905,-0.05756 0.8126354,-0.233738 1.1034158,-0.533783 0.1054798,-0.108835 0.1589097,-0.172807 0.3395785,-0.406604 0.3194412,-0.413373 0.5198363,-0.565455 0.8656469,-0.65695 0.1478089,-0.03913 0.376695,-0.04948 0.5156,-0.02327 0.333008,0.0627 0.58068,0.27165 0.684743,0.577693 0.04163,0.122401 0.0533,0.213536 0.04735,0.370015 -0.0076,0.202414 -0.05778,0.36691 -0.162704,0.533491 -0.123723,0.196474 -0.272714,0.333691 -0.496792,0.457538 -0.06563,0.03626 -0.08277,0.05557 -0.04926,0.05535 0.0095,0 0.06453,-0.01079 0.122365,-0.02393 0.999566,-0.226751 2.381694,-1.053415 3.020737,-1.806733 0.05073,-0.05976 0.09543,-0.108688 0.09937,-0.108688 0.01637,0 0.07677,0.309538 0.102742,0.5267 0.02055,0.17208 0.02833,0.506952 0.01615,0.694067 -0.0051,0.08393 -0.0082,0.154357 -0.0059,0.156523 0.0022,0.0022 0.07158,-0.01644 0.15424,-0.0414 0.538094,-0.16222 0.948347,-0.227705 1.425229,-0.227499 0.357549,0 0.621945,0.03523 0.918181,0.12188 0.662969,0.193861 1.188169,0.613298 1.492041,1.191563 0.186305,0.35454 0.289852,0.834395 0.259145,1.200908 -0.05721,0.682769 -0.385598,1.224591 -0.828366,1.366733 -0.115258,0.037 -0.177196,0.0439 -0.346464,0.03846 -0.18304,-0.0059 -0.26673,-0.02378 -0.396825,-0.0851 -0.154842,-0.07297 -0.241198,-0.160451 -0.241198,-0.244369 0,-0.03612 0.0051,-0.04867 0.03003,-0.0718 0.04463,-0.0417 0.118885,-0.06482 0.24859,-0.07739 0.272486,-0.02636 0.429384,-0.08832 0.563509,-0.222441 0.107902,-0.10791 0.175273,-0.230288 0.212427,-0.385909 0.02735,-0.114553 0.02236,-0.322487 -0.0105,-0.435484 -0.09139,-0.3147 -0.323119,-0.548997 -0.660766,-0.668079 -0.370933,-0.130829 -0.835092,-0.04911 -1.397295,0.245888 -0.391503,0.205454 -0.714012,0.424091 -1.594878,1.081194 -0.973138,0.725928 -1.346493,0.975326 -1.811071,1.209784 -0.483254,0.243877 -0.852404,0.347962 -1.235934,0.348491 -0.363092,5.21e-4 -0.665083,-0.09543 -0.9548065,-0.303297 -0.041329,-0.02966 -0.076455,-0.05396 -0.078,-0.05396 -0.00149,0 -0.0059,0.06093 -0.0091,0.135372 -0.00896,0.191916 -0.0497,0.355083 -0.1272978,0.509471 -0.1192445,0.237343 -0.3519341,0.455203 -0.6197514,0.580254 -0.096824,0.04522 -0.2899361,0.110537 -0.2992449,0.101228 -0.00291,-0.0029 1.47e-4,-0.06365 0.00731,-0.134748 0.018975,-0.19359 -0.00365,-0.274139 -0.1176861,-0.415421 -0.1566188,-0.19439 -0.557783,-0.491367 -1.207508,-0.893919 -0.462574,-0.286596 -0.5346286,-0.332456 -0.6791563,-0.432283 -0.4850897,-0.335034 -0.8656615,-0.654071 -1.3102714,-1.098409 -0.3064762,-0.306286 -0.4381054,-0.45165 -0.6557669,-0.724174 -0.2089989,-0.261679 -0.218983,-0.27297 -0.2229693,-0.252268 -0.00514,0.02687 0.1141862,0.259911 0.2084556,0.407 0.3156236,0.492446 0.719203,0.99492 1.5718483,1.957009 0.3518748,0.397039 0.5600882,0.637928 0.7147909,0.826973 0.6937947,0.847808 0.9873504,1.471691 1.0577606,2.248045 0.01549,0.170296 0.00661,0.618678 -0.015123,0.798959 -0.036926,0.301255 -0.1024329,0.627304 -0.1829814,0.910655 -0.06497,0.228519 -0.1652228,0.50701 -0.1825262,0.50701 -0.00734,0 -0.04647,-0.01329 -0.087273,-0.02944 -0.4217271,-0.167527 -0.6876869,-0.445703 -0.8472055,-0.886113 -0.048012,-0.132568 -0.059905,-0.146899 -0.068347,-0.08253 -0.024666,0.18746 -0.06798,0.33681 -0.1438522,0.495742 -0.1861161,0.390019 -0.5137721,0.679522 -0.9146719,0.808171 l -0.1132172,0.03634 -0.0022,6.6702759 -0.0022,6.6702929 0.064089,0.045739 c 0.1568391,0.1119179 0.2516737,0.2436501 0.3062414,0.4253835 0.022024,0.073341 0.026135,0.1060153 0.026502,0.2099165 3.013e-4,0.083504 -0.00514,0.1447737 -0.016224,0.1907233 C 5.4695488,3.2021081 5.1871813,3.4323521 4.8157126,3.4544642 4.4534499,3.4760464 4.141585,3.2367369 4.0371113,2.8570681 4.0123711,2.7671069 4.0120779,2.5519564 4.0366415,2.4632882 4.0916276,2.2645232 4.2240497,2.0962466 4.4118835,1.9863989 L 4.4762665,1.94874 v -6.6866345 -6.6866105 l -0.022171,-0.01923 c -0.012186,-0.01057 -0.055353,-0.04125 -0.095987,-0.06813 -0.099496,-0.06593 -0.2388705,-0.207017 -0.3094128,-0.313171 -0.1510028,-0.227234 -0.2206495,-0.518067 -0.1929215,-0.805573 0.011306,-0.117064 0.0428,-0.26422 0.071358,-0.33311 0.013728,-0.03318 0.014462,-0.02944 0.019968,0.09845 0.0083,0.195176 0.042947,0.329543 0.1177688,0.456386 0.1443002,0.244736 0.4414824,0.377907 0.7626854,0.341766 0.3133918,-0.03523 0.5902461,-0.192078 0.7732568,-0.437973 0.126865,-0.170455 0.2304871,-0.45534 0.2932257,-0.806195 0.083412,-0.466391 0.00844,-1.100721 -0.2090502,-1.768681 -0.1344482,-0.412933 -0.3108444,-0.820917 -0.6024766,-1.39347 -0.1602675,-0.314655 -0.287536,-0.550552 -0.7409553,-1.373369 -0.2367488,-0.429635 -0.360398,-0.658969 -0.5254813,-0.974651 -1.1797654,-2.255945 -1.7143719,-4.191275 -1.7774996,-6.434696 l -0.00661,-0.237314 -0.1241044,-0.0059 C 1.4298204,-25.520886 0.97622488,-25.772743 0.650742,-26.197362 0.27400964,-26.688853 0.07534732,-27.365 0.07576577,-28.154268 c 2.2758e-4,-0.393382 0.05704173,-0.878531 0.13781781,-1.177284 0.0312738,-0.115676 0.0335496,-0.09297 -0.0306866,-0.303878 -0.0804237,-0.263735 -0.13093904,-0.502327 -0.16175038,-0.763977 -0.01482938,-0.126226 -0.02694248,-0.591942 -0.01820636,-0.703911 z m 0.5301504,3.401428 c 0.0577025,0.426939 0.22432742,0.756614 0.48966319,0.968909 0.1680859,0.134485 0.3433883,0.201364 0.550104,0.209872 0.1466714,0.0059 0.2455584,-0.01035 0.3716449,-0.06145 0.091972,-0.03729 0.2231381,-0.115346 0.2317935,-0.137913 0.00294,-0.0081 0.019014,-0.08101 0.035385,-0.161926 0.1200593,-0.595077 0.3149115,-1.211649 0.5451927,-1.72512 0.4024782,-0.897442 0.9520757,-1.619369 1.6407683,-2.15526 0.5899084,-0.459021 1.3027391,-0.755733 1.9591448,-0.815469 0.1430228,-0.013 0.2663856,-0.01321 0.4257941,-5.94e-4 0.069008,0.0051 0.1842221,0.01461 0.2559611,0.02034 0.799744,0.06394 1.5304356,0.487182 1.9169395,1.110354 0.2226757,0.359033 0.3292416,0.76806 0.2956625,1.13483 -0.024007,0.262024 -0.08612,0.489127 -0.1922604,0.702788 -0.080641,0.162322 -0.1711698,0.289672 -0.291038,0.409385 -0.2279172,0.227609 -0.5052631,0.353601 -0.77841,0.353601 -0.1139146,0 -0.209388,-0.02166 -0.3134286,-0.07107 -0.068934,-0.03274 -0.098535,-0.05476 -0.1677628,-0.124641 -0.1037837,-0.104782 -0.1620514,-0.213932 -0.2030083,-0.380241 -0.022978,-0.09324 -0.026722,-0.128824 -0.026795,-0.255969 -2.276e-4,-0.344937 0.1024181,-0.498259 0.3827594,-0.571848 0.055647,-0.01461 0.1072561,-0.01814 0.2682504,-0.0185 0.1096346,-3.67e-4 0.199345,-0.0037 0.1993597,-0.0084 0,-0.0044 -0.015049,-0.04067 -0.033476,-0.08048 -0.1312327,-0.284027 -0.4140334,-0.483093 -0.8072469,-0.568237 -0.1445938,-0.03127 -0.4376576,-0.03091 -0.5867957,7.35e-4 -0.3197273,0.06805 -0.5742348,0.202589 -0.7937757,0.419612 -0.1683575,0.16642 -0.2756356,0.325167 -0.3858649,0.571005 -0.3597814,0.802372 -0.3239706,1.565982 0.1043343,2.22495 0.4560622,0.701665 1.3373679,1.196533 2.2892306,1.285429 0.1815058,0.01696 0.5556912,0.0066 0.7206056,-0.01953 0.4993169,-0.07979 0.924575,-0.270358 1.2958384,-0.580681 0.1281714,-0.107138 0.3606684,-0.348652 0.4655764,-0.483643 0.378824,-0.487432 0.654651,-1.094636 0.788416,-1.735625 0.07371,-0.353189 0.09811,-0.621667 0.09074,-0.998319 -0.0059,-0.282492 -0.01828,-0.42119 -0.06167,-0.672131 -0.103123,-0.595744 -0.343711,-1.166338 -0.685726,-1.626246 C 9.8702853,-32.426424 8.8026722,-33.011729 7.5065917,-33.19841 7.1901753,-33.244 6.9977604,-33.25685 6.62649,-33.25714 c -0.3642816,-3.74e-4 -0.5138088,0.0084 -0.8417437,0.04918 -1.8339246,0.227932 -3.4607739,1.173503 -4.3881901,2.550521 -0.44927159,0.667081 -0.73055265,1.413351 -0.84356428,2.238106 -0.033256,0.242498 -0.0319346,0.225797 -0.0335496,0.433181 -7.3413e-4,0.110295 0.004404,0.222903 0.012627,0.285501 z"
       id="path21"
       inkscape:connector-curvature="0" />
    <path
       id="path115"
       d="m 149.9971,-31.101913 c -0.043,-0.553554 -0.15348,-1.012281 -0.36034,-1.496431 -0.26041,-0.609466 -0.6434,-1.134176 -1.13396,-1.553525 -0.58355,-0.498839 -1.2413,-0.860559 -2.0884,-1.148498 -1.06857,-0.363217 -2.28945,-0.537029 -3.523,-0.501556 -0.5893,0.01696 -0.98669,0.05851 -1.6405,0.171507 -0.75801,0.131026 -1.18038,0.171844 -1.63789,0.158285 -0.49598,-0.01468 -0.81349,-0.06534 -1.45547,-0.232109 -0.68334,-0.177527 -0.91631,-0.216553 -1.29257,-0.21656 -0.41338,-1.5e-5 -0.80818,0.05176 -1.38814,0.182151 -0.51747,0.116315 -0.60145,0.134287 -0.74166,0.158645 -0.17727,0.03083 -0.42192,0.04096 -0.58235,0.02415 -0.061,-0.0066 -0.11254,-0.0099 -0.11462,-0.0079 -0.007,0.0075 0.10894,0.191145 0.18842,0.297365 0.3366,0.449845 0.853,0.791948 1.36491,0.904204 0.1874,0.04111 0.27822,0.05036 0.49731,0.05051 0.15753,0 0.20605,0.0029 0.19885,0.01167 -0.0161,0.01938 -0.20377,0.09734 -0.33676,0.139859 -0.37598,0.120199 -0.73312,0.123568 -1.11356,0.0105 -0.19165,-0.05697 -0.34666,-0.121432 -0.77329,-0.321666 -0.57238,-0.268639 -0.86963,-0.365904 -1.25654,-0.411162 -0.14656,-0.01711 -0.45714,-0.01946 -0.60559,-0.0044 -0.32615,0.03282 -0.70649,0.129984 -1.07414,0.274519 -0.12227,0.04809 -0.11491,0.02239 -0.0595,0.207472 0.19991,0.667205 0.57789,1.142303 1.12515,1.414223 0.20522,0.101964 0.43097,0.171199 0.69117,0.211973 0.12246,0.01923 0.17914,0.0221 0.43611,0.02225 0.25928,0 0.31315,-0.0029 0.44116,-0.02239 0.0802,-0.01241 0.15063,-0.02093 0.15653,-0.01894 0.0194,0.0066 -0.15305,0.107763 -0.35468,0.208573 -0.66335,0.331672 -1.45182,0.58684 -2.11355,0.684009 -0.36204,0.05315 -0.75801,0.06593 -1.10265,0.03553 -0.91646,-0.08083 -1.46882,-0.311065 -1.66888,-0.695623 -0.0859,-0.165031 -0.10334,-0.350054 -0.0485,-0.51372 0.0373,-0.111323 0.0653,-0.160642 0.17819,-0.31384 0.13922,-0.188921 0.17224,-0.270247 0.16319,-0.40206 -0.009,-0.136173 -0.0868,-0.246784 -0.22286,-0.318295 -0.0994,-0.05227 -0.17938,-0.06791 -0.32092,-0.06284 -0.10005,0.0037 -0.13225,0.009 -0.21033,0.03561 -0.18278,0.06218 -0.33669,0.178012 -0.46124,0.34703 -0.16482,0.223659 -0.28511,0.564559 -0.31053,0.880131 l -0.002,0.02951 h -6.51135 -6.51084 l -0.0164,-0.02114 c -0.009,-0.0116 -0.0379,-0.05065 -0.0641,-0.0867 -0.0848,-0.116388 -0.22962,-0.210746 -0.3886,-0.253185 -0.10462,-0.0279 -0.31903,-0.03597 -0.40051,-0.01512 -0.20029,0.05139 -0.36073,0.162837 -0.46271,0.321387 -0.085,0.132172 -0.12161,0.252921 -0.12991,0.428825 -0.004,0.10004 -0.003,0.130962 0.0153,0.20182 0.0663,0.266165 0.26713,0.475692 0.53804,0.561277 0.0936,0.02959 0.2877,0.03788 0.37953,0.01623 0.20999,-0.04941 0.386,-0.176345 0.51129,-0.368709 l 0.0519,-0.07969 6.59916,0.0029 6.59919,0.0029 0.0781,0.09707 c 0.0429,0.05337 0.13075,0.148037 0.19504,0.210334 0.45388,0.439787 1.0644,0.698185 1.87423,0.793255 0.21104,0.02474 0.68039,0.0301 0.86148,0.0098 1.0918,-0.122556 2.16522,-0.458111 3.56384,-1.114061 0.29699,-0.139286 0.90991,-0.445226 1.46198,-0.729746 1.23552,-0.636752 1.71172,-0.870462 2.35295,-1.154797 1.32174,-0.586076 2.54488,-0.943105 3.74109,-1.091993 0.7483,-0.09315 1.3882,-0.105266 2.34312,-0.04442 1.55589,0.09916 2.84154,0.533073 3.70649,1.250969 0.85057,0.705951 1.47104,1.940519 1.54066,3.06546 0.0105,0.168078 0.003,0.365192 -0.0145,0.370808 -0.005,0.0015 -0.0275,-0.03112 -0.049,-0.07304 -0.19621,-0.382298 -0.53413,-0.839241 -0.89614,-1.211781 -1.09428,-1.126129 -2.64212,-1.840458 -4.39579,-2.028681 -0.37691,-0.04045 -0.48573,-0.04522 -1.0288,-0.04522 -0.52411,0 -0.64038,0.0044 -1.0091,0.03993 -1.83999,0.176315 -3.8523,0.825123 -5.99048,1.931432 -0.42299,0.218865 -0.61718,0.324065 -1.3588,0.736161 -0.75301,0.418423 -1.07137,0.589387 -1.34164,0.72048 -0.69731,0.338242 -1.1751,0.494142 -1.76445,0.575718 -0.14901,0.02063 -0.68844,0.01755 -0.86144,-0.0051 -0.17043,-0.0221 -0.39295,-0.06526 -0.55948,-0.108563 l -0.12631,-0.03282 0.007,0.05991 c 0.0443,0.415384 0.17875,0.785913 0.39619,1.092228 0.0312,0.04397 0.10329,0.126732 0.16014,0.183891 0.20075,0.201841 0.45175,0.334432 0.74721,0.394719 0.12401,0.02533 0.36749,0.03458 0.50315,0.01923 0.59378,-0.0674 1.25075,-0.417513 2.01817,-1.075556 0.19689,-0.168834 0.35422,-0.314654 0.66203,-0.613606 0.44137,-0.428672 0.62388,-0.59562 0.65113,-0.59562 0.0199,0 -0.003,0.04052 -0.0761,0.13127 -0.38731,0.485031 -0.57881,0.892883 -0.65026,1.384851 -0.0243,0.16752 -0.0342,0.285444 -0.0603,0.717764 -0.0305,0.50508 -0.0459,0.687283 -0.0841,0.993716 -0.0516,0.413944 -0.11558,0.773249 -0.21714,1.219672 -0.0538,0.236367 -0.18929,0.761907 -0.20161,0.781839 -0.007,0.01057 -0.0142,0.01109 0.11624,-0.0073 0.60318,-0.08359 1.18964,-0.375815 1.61741,-0.805962 0.19168,-0.192731 0.33687,-0.397435 0.47185,-0.66523 0.14118,-0.280099 0.21588,-0.49232 0.40984,-1.164327 0.22416,-0.776684 0.33557,-1.083733 0.54483,-1.501702 0.21043,-0.420303 0.39577,-0.687188 0.66518,-0.957846 0.21085,-0.211818 0.40063,-0.353395 0.62827,-0.468674 0.0678,-0.03429 0.1248,-0.06079 0.12678,-0.0588 0.002,0.0022 -0.0213,0.05631 -0.0517,0.120786 -0.18889,0.399711 -0.31681,0.737321 -0.43231,1.140966 -0.34137,1.192966 -0.34515,2.405297 -0.0107,3.432944 0.23832,0.732315 0.65758,1.386276 1.18723,1.851786 0.63107,0.554656 1.41426,0.900379 2.25951,0.997416 0.20201,0.0232 0.58847,0.02327 0.78099,3.67e-4 0.46034,-0.05513 0.82175,-0.162676 1.23231,-0.366667 0.69778,-0.3467 1.28781,-0.902354 1.71623,-1.616228 0.30664,-0.51096 0.50395,-1.071429 0.58299,-1.656037 0.0219,-0.16211 0.0307,-0.615853 0.0152,-0.785458 -0.0732,-0.801073 -0.39725,-1.48277 -0.96727,-2.035113 -0.29943,-0.290135 -0.60379,-0.486426 -0.9435,-0.608482 -0.86163,-0.309596 -1.81568,-0.09058 -2.20115,0.505315 -0.0668,0.103218 -0.0731,0.104709 -0.0731,0.01732 0,-0.448281 0.51677,-0.901318 1.22078,-1.070234 0.22476,-0.05396 0.32361,-0.06438 0.61038,-0.06453 0.2782,-3.75e-4 0.34033,0.0059 0.58086,0.05418 0.52019,0.104988 1.00533,0.345091 1.44229,0.713793 0.12384,0.104495 0.35944,0.341846 0.46884,0.47233 0.6385,0.761526 1.07404,1.826437 1.22405,2.992863 0.0476,0.370045 0.0669,0.908322 0.0457,1.269997 -0.082,1.396869 -0.54721,2.626922 -1.34595,3.558941 -0.12221,0.142598 -0.3945,0.416383 -0.51081,0.513596 -0.64213,0.536699 -1.42688,0.888625 -2.17083,0.97352 -0.13059,0.01491 -0.43028,0.01491 -0.5464,0 -0.44838,-0.05756 -0.81263,-0.233739 -1.10341,-0.533784 -0.10548,-0.108835 -0.15892,-0.172807 -0.33958,-0.406604 -0.31944,-0.413374 -0.51985,-0.565455 -0.86565,-0.65695 -0.14782,-0.03913 -0.37671,-0.04948 -0.51561,-0.02328 -0.33301,0.0627 -0.58068,0.27165 -0.68474,0.577693 -0.0416,0.122401 -0.0533,0.213535 -0.0473,0.370015 0.007,0.202413 0.0578,0.36691 0.16271,0.53349 0.12372,0.196475 0.27271,0.333691 0.49679,0.457539 0.0656,0.03626 0.0828,0.05557 0.0492,0.05535 -0.009,0 -0.0645,-0.01079 -0.12236,-0.02393 -0.99958,-0.22675 -2.38171,-1.053415 -3.02076,-1.806733 -0.0507,-0.05976 -0.0954,-0.108687 -0.0994,-0.108687 -0.0164,0 -0.0767,0.309537 -0.10275,0.5267 -0.0206,0.172079 -0.0283,0.506952 -0.0162,0.694066 0.005,0.08393 0.008,0.154358 0.006,0.156523 -0.002,0.0022 -0.0716,-0.01644 -0.15424,-0.0414 -0.5381,-0.162219 -0.94836,-0.227704 -1.42524,-0.227498 -0.35756,0 -0.62195,0.03524 -0.91819,0.12188 -0.66297,0.19386 -1.18817,0.613297 -1.49205,1.191563 -0.1863,0.354539 -0.28984,0.834394 -0.25913,1.200908 0.0572,0.682768 0.38559,1.224591 0.82835,1.366733 0.11526,0.037 0.1772,0.0439 0.34647,0.03846 0.18304,-0.0059 0.26673,-0.02378 0.39683,-0.0851 0.15484,-0.07298 0.2412,-0.160451 0.2412,-0.244369 0,-0.03612 -0.005,-0.04867 -0.0301,-0.0718 -0.0446,-0.0417 -0.11888,-0.06482 -0.24859,-0.07738 -0.27249,-0.02636 -0.42939,-0.08832 -0.56352,-0.222441 -0.1079,-0.107909 -0.17527,-0.230289 -0.21242,-0.385909 -0.0274,-0.114554 -0.0224,-0.322488 0.0105,-0.435484 0.0914,-0.314707 0.32314,-0.549003 0.66079,-0.668086 0.37094,-0.130829 0.8351,-0.04911 1.39731,0.245888 0.3915,0.205453 0.71401,0.424092 1.59489,1.081195 0.97314,0.725927 1.34649,0.975325 1.81107,1.209783 0.48326,0.243878 0.85241,0.347963 1.23594,0.348491 0.3631,5.21e-4 0.6651,-0.09543 0.95482,-0.303298 0.0413,-0.02966 0.0765,-0.05396 0.078,-0.05396 0.002,0 0.006,0.06094 0.009,0.135372 0.009,0.191916 0.0497,0.355083 0.1273,0.509471 0.11924,0.237343 0.35193,0.455203 0.61975,0.580254 0.0968,0.04522 0.28994,0.110538 0.29925,0.101229 0.003,-0.0029 -1.5e-4,-0.06365 -0.007,-0.134749 -0.0189,-0.19359 0.003,-0.274138 0.11771,-0.415421 0.15663,-0.194389 0.55779,-0.491366 1.20752,-0.893918 0.46257,-0.286596 0.53462,-0.332457 0.67916,-0.432284 0.48509,-0.335034 0.86566,-0.654071 1.31028,-1.098409 0.30647,-0.306285 0.43811,-0.45165 0.65577,-0.724173 0.20899,-0.26168 0.21898,-0.272971 0.22297,-0.252269 0.005,0.02687 -0.11419,0.259911 -0.20846,0.407001 -0.31562,0.492445 -0.71921,0.99492 -1.57186,1.957009 -0.35188,0.397037 -0.56009,0.637927 -0.71479,0.826972 -0.6938,0.847807 -0.98736,1.471692 -1.05777,2.248045 -0.0155,0.170296 -0.007,0.618679 0.0151,0.798959 0.037,0.301256 0.10244,0.627305 0.18299,0.910656 0.0649,0.228519 0.16522,0.50701 0.18252,0.50701 0.007,0 0.0465,-0.01329 0.0873,-0.02944 0.42173,-0.167528 0.68769,-0.445703 0.84721,-0.886113 0.048,-0.132569 0.0599,-0.146899 0.0683,-0.08253 0.0247,0.18746 0.068,0.33681 0.14386,0.495741 0.18611,0.39002 0.51378,0.679523 0.91468,0.808172 l 0.11322,0.03634 0.002,6.6702756 0.002,6.670293 -0.0641,0.045739 c -0.15684,0.1119179 -0.25167,0.2436501 -0.30624,0.4253834 -0.022,0.073341 -0.0262,0.1060154 -0.0265,0.2099165 -2.9e-4,0.083536 0.005,0.144807 0.0162,0.1907558 0.0863,0.3511634 0.36866,0.5814083 0.74012,0.6035195 0.36227,0.021582 0.67414,-0.2177273 0.77861,-0.5973961 0.0247,-0.089961 0.0251,-0.3051117 4.7e-4,-0.3937799 -0.055,-0.198765 -0.18741,-0.3670416 -0.37524,-0.4768893 l -0.0644,-0.037659 V -4.7379792 -11.42459 l 0.0222,-0.01923 c 0.0122,-0.01057 0.0554,-0.04125 0.096,-0.06813 0.0995,-0.06593 0.23887,-0.207016 0.30941,-0.313171 0.151,-0.227234 0.22065,-0.518067 0.19292,-0.805573 -0.0113,-0.117063 -0.0428,-0.264219 -0.0713,-0.33311 -0.0137,-0.03318 -0.0144,-0.02944 -0.02,0.09845 -0.008,0.195175 -0.0429,0.329543 -0.11777,0.456385 -0.1443,0.244736 -0.44148,0.377907 -0.76269,0.341766 -0.31339,-0.03523 -0.59025,-0.192078 -0.77326,-0.437973 -0.12686,-0.17045 -0.23048,-0.455336 -0.29323,-0.80619 -0.0834,-0.466391 -0.008,-1.100721 0.20906,-1.768681 0.13444,-0.412933 0.31085,-0.820916 0.60248,-1.39347 0.16026,-0.314655 0.28753,-0.550552 0.74096,-1.37337 0.23675,-0.429633 0.36039,-0.658967 0.52548,-0.97465 1.17977,-2.255946 1.71438,-4.191275 1.77751,-6.434696 l 0.007,-0.237315 0.1241,-0.0059 c 0.47804,-0.02151 0.93163,-0.273375 1.25712,-0.697994 0.37673,-0.491492 0.57539,-1.167637 0.57497,-1.956906 -2.2e-4,-0.393382 -0.0571,-0.878531 -0.13781,-1.177284 -0.0313,-0.115676 -0.0336,-0.09297 0.0306,-0.303878 0.0805,-0.263735 0.13094,-0.502327 0.16175,-0.763977 0.0149,-0.126226 0.0269,-0.591942 0.0182,-0.703911 z m -0.53015,3.401428 c -0.0577,0.426939 -0.22432,0.756614 -0.48966,0.968909 -0.16809,0.134485 -0.34339,0.201364 -0.55011,0.209872 -0.14667,0.0059 -0.24555,-0.01035 -0.37164,-0.06145 -0.092,-0.03729 -0.22315,-0.115346 -0.2318,-0.137913 -0.003,-0.0081 -0.019,-0.08101 -0.0354,-0.161926 -0.12006,-0.595077 -0.31491,-1.211649 -0.54519,-1.72512 -0.40248,-0.897442 -0.95209,-1.619369 -1.64078,-2.15526 -0.58992,-0.459021 -1.30274,-0.755733 -1.95915,-0.815469 -0.14303,-0.013 -0.26639,-0.01321 -0.4258,-5.94e-4 -0.069,0.0051 -0.18422,0.01461 -0.25597,0.02034 -0.79974,0.06394 -1.53043,0.487182 -1.91695,1.110354 -0.22267,0.359033 -0.32924,0.76806 -0.29566,1.13483 0.024,0.262024 0.0861,0.489127 0.19226,0.702788 0.0806,0.162322 0.17117,0.289672 0.29104,0.409385 0.22792,0.227609 0.50527,0.353601 0.77842,0.353601 0.11391,0 0.20938,-0.02166 0.31342,-0.07107 0.0689,-0.03274 0.0985,-0.05476 0.16777,-0.124641 0.10379,-0.104782 0.16205,-0.213932 0.203,-0.380241 0.023,-0.09324 0.0267,-0.128824 0.0268,-0.255969 2.4e-4,-0.344937 -0.10241,-0.498259 -0.38275,-0.571848 -0.0556,-0.01461 -0.10726,-0.01814 -0.26825,-0.0185 -0.10964,-3.67e-4 -0.19935,-0.0037 -0.19936,-0.0084 0,-0.0044 0.015,-0.04067 0.0335,-0.08048 0.13124,-0.284027 0.41404,-0.483093 0.80725,-0.568237 0.14459,-0.03127 0.43767,-0.03091 0.5868,7.35e-4 0.31973,0.06805 0.57424,0.202589 0.79379,0.419612 0.16835,0.16642 0.27563,0.325167 0.38586,0.571005 0.35978,0.802372 0.32398,1.565982 -0.10433,2.22495 -0.45607,0.701665 -1.33738,1.196533 -2.28925,1.285429 -0.18151,0.01696 -0.55569,0.0066 -0.7206,-0.01953 -0.49933,-0.07979 -0.92459,-0.270358 -1.29585,-0.580681 -0.12818,-0.107138 -0.36067,-0.348652 -0.46559,-0.483643 -0.37882,-0.487432 -0.65465,-1.094636 -0.78842,-1.735625 -0.0737,-0.353189 -0.0981,-0.621667 -0.0907,-0.998319 0.006,-0.282492 0.0183,-0.42119 0.0617,-0.672131 0.10312,-0.595744 0.34372,-1.166338 0.68573,-1.626246 0.65772,-0.884456 1.72534,-1.469761 3.02143,-1.656442 0.31641,-0.04559 0.50884,-0.05844 0.88011,-0.05873 0.36428,-3.74e-4 0.51381,0.0084 0.84175,0.04918 1.83393,0.227932 3.46079,1.173503 4.38821,2.550521 0.44927,0.667081 0.73056,1.413351 0.84357,2.238106 0.0333,0.242498 0.032,0.225797 0.0335,0.433181 7.3e-4,0.110295 -0.004,0.222903 -0.0126,0.285501 z"
       style="fill:#c28f20;fill-opacity:1;stroke-width:0.00984493"
       inkscape:connector-curvature="0" />
    <path
       style="fill:#c28f20;fill-opacity:1;stroke-width:0.00984493"
       d="m 0.0023009,102.66894 c 0.04301989,0.55356 0.1534841,1.01229 0.36033929,1.49644 0.26040981,0.60947 0.64340421,1.13418 1.13396311,1.55353 0.5835436,0.49885 1.2412854,0.86056 2.0883881,1.1485 1.0685597,0.36322 2.2894436,0.53703 3.5229762,0.50155 0.5892994,-0.0169 0.9866901,-0.0585 1.6404824,-0.1715 0.7580164,-0.13103 1.1803822,-0.17185 1.637883,-0.15828 0.495984,0.0147 0.813487,0.0653 1.455474,0.2321 0.683341,0.17753 0.916302,0.21656 1.292558,0.21656 0.413379,2e-5 0.808178,-0.0517 1.388133,-0.18215 0.517457,-0.11631 0.601448,-0.13428 0.741652,-0.15864 0.177277,-0.0308 0.421917,-0.0409 0.582347,-0.0242 0.06094,0.007 0.112541,0.01 0.114619,0.008 0.0075,-0.008 -0.10893,-0.19116 -0.188414,-0.29737 -0.336597,-0.44985 -0.853005,-0.79195 -1.364913,-0.90421 -0.187393,-0.0411 -0.278212,-0.0503 -0.497298,-0.0505 -0.157528,0 -0.20604,-0.003 -0.198845,-0.0117 0.01608,-0.0193 0.203757,-0.0973 0.336759,-0.13985 0.375969,-0.1202 0.733114,-0.12357 1.113547,-0.0105 0.191651,0.057 0.346663,0.12144 0.773293,0.32166 0.572371,0.26865 0.869612,0.36591 1.256533,0.41117 0.146554,0.0171 0.45712,0.0194 0.605575,0.004 0.326151,-0.0328 0.706496,-0.12998 1.074139,-0.27451 0.122269,-0.0481 0.114906,-0.0224 0.05947,-0.20748 -0.199896,-0.6672 -0.577884,-1.1423 -1.12514,-1.41422 -0.20521,-0.10196 -0.430962,-0.1712 -0.691166,-0.21197 -0.12246,-0.0193 -0.179134,-0.0221 -0.436109,-0.0223 -0.259272,0 -0.313142,0.003 -0.441152,0.0224 -0.08019,0.0124 -0.150636,0.0209 -0.156531,0.0189 -0.01931,-0.007 0.153044,-0.10776 0.35468,-0.20857 0.663342,-0.33168 1.451803,-0.58685 2.113547,-0.68402 0.362012,-0.0532 0.757994,-0.0659 1.10263,-0.0355 0.916448,0.0808 1.468814,0.31107 1.668886,0.69563 0.08586,0.16504 0.10332,0.35006 0.04853,0.51372 -0.03729,0.11133 -0.06526,0.16065 -0.178195,0.31385 -0.139212,0.18892 -0.172226,0.27025 -0.163196,0.40206 0.0093,0.13617 0.08679,0.24678 0.222866,0.31829 0.09944,0.0523 0.179378,0.0679 0.320909,0.0629 0.100055,-0.003 0.132262,-0.009 0.210335,-0.0356 0.182777,-0.0622 0.336687,-0.17801 0.461246,-0.34703 0.164819,-0.22366 0.285099,-0.56456 0.310536,-0.88014 l 0.0022,-0.0295 h 6.510855 6.510832 l 0.01637,0.0212 c 0.009,0.0116 0.03788,0.0507 0.06409,0.0867 0.08479,0.11639 0.229621,0.21075 0.388603,0.2532 0.104621,0.0279 0.319023,0.036 0.400504,0.0151 0.200292,-0.0514 0.360736,-0.16284 0.462721,-0.32139 0.08503,-0.13217 0.1216,-0.25292 0.129911,-0.42883 0.0044,-0.10004 0.0022,-0.13096 -0.01527,-0.20183 -0.06629,-0.26616 -0.267134,-0.47569 -0.53805,-0.56127 -0.09356,-0.0296 -0.287704,-0.0379 -0.379529,-0.0162 -0.209989,0.0494 -0.385996,0.17635 -0.51129,0.36871 l -0.0519,0.0797 -6.599155,-0.003 -6.599149,-0.003 -0.07815,-0.0971 c -0.04295,-0.0534 -0.130748,-0.14804 -0.195043,-0.21033 -0.45386,-0.43979 -1.064376,-0.6982 -1.874214,-0.79326 -0.211032,-0.0247 -0.68039,-0.0301 -0.861477,-0.01 -1.09178,0.12255 -2.165207,0.45811 -3.563816,1.11407 -0.296991,0.13928 -0.909907,0.44523 -1.461971,0.72975 -1.235515,0.63675 -1.711714,0.87046 -2.352938,1.15479 -1.321732,0.58608 -2.5448621,0.94311 -3.7410718,1.092 -0.7482964,0.0931 -1.3881845,0.10527 -2.3430936,0.0444 -1.5558628,-0.0993 -2.8415041,-0.53318 -3.7064534,-1.25109 -0.8505605,-0.70595 -1.47103064,-1.94052 -1.54065532,-3.06547 -0.0104247,-0.16807 -0.002936,-0.36519 0.0145358,-0.37081 0.005139,-0.002 0.0274564,0.0311 0.0489663,0.0731 0.19621034,0.38229 0.53412942,0.83925 0.89613512,1.21179 1.0942762,1.12613 2.6421113,1.84046 4.3957591,2.02868 0.3769156,0.0404 0.485728,0.0453 1.0287991,0.0453 0.5241161,0 0.6403799,-0.004 1.0091029,-0.0399 1.8399737,-0.17632 3.8522768,-0.82512 5.9904388,-1.93144 0.422997,-0.21887 0.617173,-0.32406 1.358797,-0.73617 0.75301,-0.41842 1.071364,-0.58939 1.341626,-0.72047 0.697311,-0.33824 1.175103,-0.49414 1.764454,-0.57572 0.148998,-0.0206 0.688429,-0.0175 0.861426,0.005 0.170434,0.0221 0.392942,0.0653 0.559486,0.10856 l 0.126299,0.0328 -0.0066,-0.0599 c -0.04434,-0.41539 -0.178746,-0.78592 -0.396188,-1.09223 -0.0312,-0.044 -0.103276,-0.12673 -0.160134,-0.18389 -0.200755,-0.20184 -0.451761,-0.334435 -0.747203,-0.394721 -0.124016,-0.02533 -0.36749,-0.03458 -0.503149,-0.01923 -0.593792,0.06739 -1.250749,0.417511 -2.018162,1.075551 -0.196886,0.16884 -0.354217,0.31466 -0.662029,0.6136 -0.441372,0.42868 -0.623876,0.59563 -0.651127,0.59563 -0.0199,0 0.0037,-0.0405 0.07607,-0.13127 0.387304,-0.48503 0.578802,-0.89288 0.650254,-1.38485 0.0243,-0.16752 0.03421,-0.28544 0.06027,-0.717764 0.03047,-0.50508 0.04588,-0.687284 0.08406,-0.993716 0.05161,-0.413945 0.115574,-0.773249 0.217133,-1.219672 0.05381,-0.236367 0.189295,-0.761907 0.201614,-0.781839 0.0066,-0.01057 0.01417,-0.01109 -0.116242,0.0073 -0.603181,0.08359 -1.189625,0.375815 -1.617401,0.805962 -0.191674,0.192731 -0.336869,0.397436 -0.471846,0.665231 -0.14118,0.280099 -0.215878,0.49232 -0.409835,1.164326 -0.224165,0.776682 -0.335569,1.083732 -0.544825,1.501702 -0.210431,0.4203 -0.395768,0.68718 -0.665178,0.95785 -0.210849,0.21181 -0.400636,0.35339 -0.628274,0.46867 -0.06776,0.0343 -0.124795,0.0608 -0.126777,0.0588 -0.0022,-0.002 0.02129,-0.0563 0.05176,-0.12079 0.188884,-0.39971 0.316806,-0.73731 0.432307,-1.14096 0.341362,-1.19297 0.345149,-2.405296 0.01072,-3.432942 -0.238313,-0.732315 -0.657573,-1.386276 -1.187217,-1.851787 -0.631071,-0.554655 -1.4142527,-0.900378 -2.2594982,-0.997415 -0.2020028,-0.0232 -0.5884622,-0.02327 -0.7809872,-3.67e-4 -0.4603349,0.05513 -0.8217389,0.162675 -1.2322999,0.366668 -0.6977735,0.346699 -1.2878067,0.902353 -1.7162216,1.616226 -0.3066378,0.51096 -0.503942,1.07143 -0.5829856,1.656038 -0.02195,0.16211 -0.030687,0.615853 -0.015196,0.785458 0.073266,0.801071 0.3972439,1.482771 0.9672648,2.035111 0.2994286,0.29013 0.6037834,0.48643 0.943486,0.60848 0.8616311,0.3096 1.8156671,0.0906 2.2011433,-0.50531 0.066806,-0.10322 0.073042,-0.10472 0.073042,-0.0174 0,0.44828 -0.5167668,0.90132 -1.2207735,1.07023 -0.2247606,0.054 -0.3236109,0.0644 -0.6103832,0.0645 -0.2781904,3.8e-4 -0.340327,-0.006 -0.580849,-0.0541 -0.520216,-0.105 -1.005357,-0.3451 -1.4423172,-0.7138 -0.12384,-0.1045 -0.3594363,-0.34186 -0.4688433,-0.47234 C 3.530405,100.64694 3.0948764,99.582029 2.944872,98.415603 2.8973006,98.045558 2.8779198,97.507281 2.8991358,97.145606 2.9811524,95.748737 3.44634,94.518684 4.2450784,93.586664 4.3672813,93.444068 4.639584,93.170281 4.7558918,93.073068 5.3980114,92.53637 6.1827497,92.184443 6.9267001,92.099549 c 0.130594,-0.0149 0.4302799,-0.0149 0.5463895,0 0.4483906,0.05756 0.8126355,0.233739 1.1034158,0.533784 0.1054798,0.108835 0.1589097,0.172807 0.3395785,0.406605 0.3194412,0.413372 0.5198363,0.565454 0.865647,0.656948 0.1478088,0.03913 0.3766951,0.04948 0.5155991,0.02327 0.333009,-0.06269 0.580681,-0.271649 0.684743,-0.577693 0.04163,-0.122401 0.0533,-0.213535 0.04735,-0.370014 -0.0076,-0.202414 -0.05778,-0.366911 -0.162704,-0.533491 -0.123723,-0.196475 -0.272714,-0.333691 -0.496792,-0.457538 -0.06563,-0.03626 -0.08277,-0.05557 -0.04926,-0.05536 0.0095,0 0.06453,0.0108 0.122365,0.02393 0.999566,0.226751 2.381693,1.053415 3.020737,1.806733 0.05073,0.05976 0.09543,0.108688 0.09937,0.108688 0.01637,0 0.07677,-0.309538 0.102742,-0.5267 0.02055,-0.17208 0.02833,-0.506952 0.01615,-0.694067 -0.0051,-0.08392 -0.0082,-0.154357 -0.0059,-0.156523 0.0022,-0.0022 0.07158,0.01644 0.15424,0.0414 0.538094,0.16222 0.948347,0.227705 1.425229,0.227499 0.357549,0 0.621945,-0.03523 0.918181,-0.12188 0.662969,-0.193861 1.188171,-0.613298 1.492041,-1.191563 0.186307,-0.354539 0.289856,-0.834395 0.259147,-1.200908 -0.05719,-0.682769 -0.385601,-1.224592 -0.828368,-1.366733 -0.115258,-0.037 -0.177196,-0.0439 -0.346464,-0.03846 -0.18304,0.0059 -0.266731,0.02378 -0.396825,0.0851 -0.154843,0.07298 -0.241198,0.160451 -0.241198,0.244369 0,0.03612 0.0051,0.04867 0.03003,0.0718 0.04463,0.0417 0.118885,0.06482 0.24859,0.07738 0.272487,0.02636 0.429385,0.08832 0.56351,0.222441 0.107902,0.107909 0.175273,0.230288 0.212427,0.385908 0.02738,0.114554 0.02239,0.322488 -0.0105,0.435486 -0.09141,0.314705 -0.323142,0.549002 -0.660789,0.668085 -0.370933,0.130828 -0.835092,0.04911 -1.397295,-0.245889 -0.391502,-0.205453 -0.714012,-0.424091 -1.594878,-1.081194 -0.973138,-0.725928 -1.346493,-0.975326 -1.811071,-1.209784 -0.483254,-0.243877 -0.852403,-0.347961 -1.235933,-0.34849 -0.363093,-5.22e-4 -0.6650836,0.09543 -0.9548071,0.303297 -0.041329,0.02966 -0.076455,0.05396 -0.078,0.05396 -0.00149,0 -0.0059,-0.06094 -0.0091,-0.135374 -0.00896,-0.191916 -0.0497,-0.355083 -0.1272978,-0.509469 C 9.1677624,87.417765 8.9350728,87.199905 8.6672555,87.074854 8.5704319,87.02963 8.3773194,86.964316 8.3680106,86.973625 c -0.00291,0.0029 1.47e-4,0.06365 0.00731,0.134749 0.018941,0.19359 -0.00365,0.274138 -0.1177176,0.415421 -0.1566189,0.19439 -0.5577831,0.491367 -1.2075084,0.893918 -0.4625739,0.286596 -0.5346286,0.332457 -0.6791563,0.432283 -0.4850893,0.335035 -0.8656612,0.654072 -1.310271,1.09841 -0.3064764,0.306286 -0.4381054,0.45165 -0.655767,0.724173 -0.2089989,0.26168 -0.218983,0.272971 -0.2229694,0.252268 -0.00514,-0.02687 0.1141862,-0.25991 0.2084556,-0.407 0.3156237,-0.492446 0.7192031,-0.994919 1.5718485,-1.957009 0.3518745,-0.397038 0.5600878,-0.637927 0.7147905,-0.826973 0.6937951,-0.847807 0.9873507,-1.471691 1.057761,-2.248046 0.01549,-0.170295 0.00661,-0.618678 -0.015123,-0.798959 -0.036926,-0.301256 -0.1024329,-0.627304 -0.1829814,-0.910655 -0.06497,-0.22852 -0.1652227,-0.507011 -0.1825261,-0.507011 -0.00734,0 -0.04647,0.01329 -0.087273,0.02944 -0.4217271,0.167528 -0.687687,0.445703 -0.8472056,0.886114 -0.048012,0.132568 -0.059905,0.146899 -0.068347,0.08253 C 6.3267088,84.081237 6.2833953,83.931886 6.2075232,83.772955 6.0214074,83.382935 5.6937515,83.093431 5.2928516,82.964782 l -0.1132172,-0.03634 -0.0022,-6.670278 -0.0022,-6.670291 0.064089,-0.04574 c 0.156839,-0.111918 0.2516737,-0.24365 0.3062413,-0.425383 0.022024,-0.07334 0.026135,-0.106016 0.026502,-0.209917 3.01e-4,-0.08354 -0.00514,-0.144807 -0.016224,-0.190755 -0.086293,-0.351161 -0.3686603,-0.581405 -0.740129,-0.603517 -0.3622627,-0.02158 -0.6741276,0.217728 -0.7786013,0.597396 -0.02474,0.08996 -0.025033,0.305111 -4.698e-4,0.393779 0.054986,0.198765 0.1874082,0.367042 0.375242,0.47689 l 0.064383,0.03766 v 6.686633 6.686611 l -0.022171,0.01923 c -0.012186,0.01057 -0.055353,0.04125 -0.095987,0.06813 -0.099496,0.06593 -0.2388705,0.207017 -0.3094128,0.313172 -0.1510028,0.227233 -0.2206495,0.518066 -0.1929215,0.805572 0.011306,0.117064 0.0428,0.26422 0.071358,0.333111 0.013728,0.03318 0.014462,0.02944 0.019968,-0.09845 0.0083,-0.195175 0.042947,-0.329543 0.1177688,-0.456386 0.1443002,-0.244736 0.4414824,-0.377906 0.7626854,-0.341765 0.3133918,0.03523 0.5902461,0.192077 0.7732568,0.437973 0.1268646,0.17045 0.2304867,0.455335 0.2932253,0.80619 0.083412,0.466391 0.00844,1.100722 -0.2090503,1.768683 -0.1344481,0.412932 -0.3108443,0.820916 -0.6024766,1.39347 -0.1602674,0.314654 -0.2875359,0.550552 -0.7409552,1.373369 -0.2367488,0.429634 -0.360398,0.658968 -0.5254813,0.974651 -1.1797654,2.255944 -1.714372,4.191275 -1.7774996,6.434695 l -0.00661,0.237314 -0.1241044,0.0059 c -0.478042,0.02151 -0.93163754,0.273375 -1.25712042,0.697994 -0.37673236,0.491491 -0.57539469,1.167638 -0.57497623,1.956906 2.2757e-4,0.393381 0.05704172,0.878531 0.13781781,1.177281 0.0312738,0.11568 0.0335496,0.093 -0.0306866,0.30388 -0.0804237,0.26373 -0.13093904,0.50232 -0.16175038,0.76398 -0.01482938,0.12622 -0.02694249,0.59194 -0.01820636,0.70391 z m 0.53015039,-3.401426 c 0.0577025,-0.426938 0.22432742,-0.756613 0.48966321,-0.968908 0.168086,-0.134485 0.3433883,-0.201364 0.550104,-0.209873 0.1466714,-0.0059 0.2455584,0.01035 0.3716449,0.06145 0.091971,0.03729 0.2231381,0.115346 0.2317934,0.137913 0.00294,0.0081 0.019014,0.08102 0.035385,0.161927 0.1200592,0.595077 0.3149114,1.211648 0.5451926,1.725117 0.4024782,0.89744 0.9520757,1.61937 1.6407683,2.15526 0.5899084,0.45903 1.3027392,0.75574 1.9591446,0.81548 0.1430228,0.0129 0.2663856,0.0132 0.4257941,5.9e-4 0.069008,-0.005 0.184222,-0.0146 0.255961,-0.0203 0.7997444,-0.0639 1.5304365,-0.48719 1.9169396,-1.11036 0.222676,-0.35902 0.3292419,-0.76805 0.2956628,-1.13482 -0.024007,-0.26203 -0.08612,-0.48913 -0.1922605,-0.70279 -0.080632,-0.16232 -0.1711689,-0.289671 -0.2910371,-0.409385 -0.227918,-0.227609 -0.5052636,-0.3536 -0.7784105,-0.3536 -0.1139147,0 -0.209388,0.02166 -0.3134285,0.07107 -0.068935,0.03274 -0.098535,0.05476 -0.1677629,0.12464 -0.1037837,0.104782 -0.1620514,0.213933 -0.2030086,0.380242 -0.022978,0.09324 -0.026722,0.128823 -0.026796,0.255963 -2.275e-4,0.34494 0.1024185,0.49826 0.3827599,0.57185 0.055647,0.0146 0.107256,0.0181 0.2682503,0.0185 0.1096346,3.7e-4 0.199345,0.004 0.1993597,0.008 0,0.004 -0.015049,0.0407 -0.033476,0.0805 -0.1312327,0.28403 -0.4140335,0.48309 -0.8072472,0.56824 -0.1445938,0.0313 -0.4376576,0.0309 -0.5867957,-7.3e-4 -0.319727,-0.0681 -0.5742341,-0.20263 -0.7937751,-0.41965 -0.168358,-0.16642 -0.2756361,-0.32516 -0.3858654,-0.571 -0.3597813,-0.802373 -0.3239706,-1.565983 0.1043342,-2.224951 0.4560623,-0.701665 1.3373677,-1.196533 2.2892307,-1.285429 0.1815057,-0.01696 0.5556906,-0.0066 0.720605,0.01953 0.4993169,0.07979 0.9245758,0.270358 1.2958384,0.580681 0.1281715,0.107139 0.3606695,0.348652 0.4655765,0.483643 0.378824,0.487432 0.654651,1.094636 0.788417,1.735625 0.07371,0.353191 0.09811,0.621671 0.09074,0.998321 -0.0059,0.28249 -0.01828,0.42119 -0.06166,0.67213 -0.103123,0.59574 -0.343711,1.16633 -0.685727,1.62625 -0.6577198,0.88446 -1.7253321,1.46976 -3.0214129,1.65645 -0.3164167,0.0456 -0.5088315,0.0585 -0.8801019,0.0587 -0.3642816,3.7e-4 -0.5138085,-0.008 -0.8417434,-0.0492 -1.8339335,-0.22794 -3.4607827,-1.17351 -4.388199,-2.55054 -0.44927158,-0.66708 -0.73055259,-1.41335 -0.84356423,-2.238108 -0.033256,-0.242498 -0.0319346,-0.225797 -0.0335496,-0.43318 -7.3413e-4,-0.110296 0.004404,-0.222904 0.012627,-0.285502 z"
       id="path117"
       inkscape:connector-curvature="0" />
    <path
       id="path119"
       d="m 149.9971,102.66896 c -0.043,0.55356 -0.15348,1.01229 -0.36034,1.49643 -0.26041,0.60947 -0.6434,1.13418 -1.13396,1.55353 -0.58355,0.49884 -1.2413,0.86056 -2.0884,1.14849 -1.06857,0.36322 -2.28945,0.53704 -3.523,0.50156 -0.5893,-0.0169 -0.98669,-0.0585 -1.6405,-0.1715 -0.75801,-0.13103 -1.18038,-0.17185 -1.63789,-0.15829 -0.49598,0.0147 -0.81349,0.0653 -1.45547,0.23211 -0.68334,0.17752 -0.91631,0.21655 -1.29257,0.21656 -0.41338,2e-5 -0.80818,-0.0517 -1.38814,-0.18215 -0.51747,-0.11631 -0.60145,-0.13428 -0.74166,-0.15865 -0.17727,-0.0308 -0.42192,-0.0409 -0.58235,-0.0242 -0.061,0.007 -0.11254,0.01 -0.11462,0.008 -0.007,-0.008 0.10894,-0.19115 0.18842,-0.29736 0.3366,-0.44985 0.853,-0.79195 1.36491,-0.90421 0.1874,-0.0411 0.27822,-0.0503 0.49731,-0.0505 0.15753,0 0.20605,-0.003 0.19885,-0.0117 -0.0161,-0.0194 -0.20377,-0.0973 -0.33676,-0.13986 -0.37598,-0.1202 -0.73312,-0.12357 -1.11356,-0.0105 -0.19165,0.057 -0.34666,0.12144 -0.77329,0.32167 -0.57238,0.26864 -0.86963,0.36591 -1.25655,0.41117 -0.14655,0.0171 -0.45713,0.0194 -0.60558,0.004 -0.32615,-0.0328 -0.70649,-0.12999 -1.07414,-0.27452 -0.12227,-0.0481 -0.11491,-0.0224 -0.0595,-0.20748 0.1999,-0.66719 0.57789,-1.14229 1.12515,-1.41422 0.20522,-0.10195 0.43096,-0.17119 0.69117,-0.21197 0.12246,-0.0193 0.17914,-0.0221 0.43611,-0.0223 0.25928,0 0.31315,0.003 0.44116,0.0224 0.0802,0.0124 0.15063,0.0209 0.15653,0.0189 0.0194,-0.007 -0.15305,-0.10776 -0.35468,-0.20857 -0.66335,-0.33166 -1.45182,-0.58684 -2.11356,-0.684 -0.36203,-0.0532 -0.758,-0.0659 -1.10264,-0.0355 -0.91646,0.0808 -1.46882,0.31106 -1.66889,0.69562 -0.0859,0.16503 -0.10333,0.35006 -0.0485,0.51372 0.0373,0.11132 0.0653,0.16064 0.1782,0.31384 0.13921,0.18892 0.17223,0.27025 0.16319,0.40206 -0.009,0.13617 -0.0868,0.24678 -0.22286,0.3183 -0.0994,0.0523 -0.17938,0.0679 -0.32092,0.0629 -0.10005,-0.003 -0.13226,-0.009 -0.21033,-0.0356 -0.18278,-0.0622 -0.33669,-0.17802 -0.46124,-0.34703 -0.16482,-0.22366 -0.28511,-0.56456 -0.31054,-0.88014 l -0.002,-0.0295 h -6.51091 -6.51083 l -0.0164,0.0212 c -0.009,0.0116 -0.0379,0.0507 -0.0641,0.0867 -0.0848,0.11639 -0.22962,0.21075 -0.38861,0.25319 -0.10461,0.0279 -0.31902,0.036 -0.40049,0.0151 -0.2003,-0.0514 -0.36074,-0.16283 -0.46273,-0.32138 -0.085,-0.13218 -0.1216,-0.25293 -0.1299,-0.42883 -0.004,-0.10004 -0.002,-0.13097 0.0153,-0.20182 0.0663,-0.26617 0.26713,-0.47569 0.53804,-0.56128 0.0936,-0.0296 0.28771,-0.0379 0.37952,-0.0162 0.21,0.0494 0.38601,0.17635 0.5113,0.36871 l 0.0519,0.0797 6.59916,-0.003 6.59919,-0.003 0.0782,-0.0971 c 0.0429,-0.0534 0.13074,-0.14803 0.19503,-0.21033 0.45387,-0.43979 1.06439,-0.69819 1.87424,-0.79325 0.21103,-0.0247 0.68038,-0.0301 0.86148,-0.01 1.09178,0.12255 2.16521,0.4581 3.56383,1.11406 0.29699,0.13928 0.90992,0.44522 1.46198,0.72974 1.23552,0.63676 1.71172,0.87047 2.35295,1.1548 1.32174,0.58607 2.54488,0.94311 3.74109,1.09199 0.7483,0.0931 1.3882,0.10527 2.34312,0.0444 1.55589,-0.0992 2.84154,-0.53307 3.70649,-1.25097 0.85057,-0.70596 1.47104,-1.94052 1.54066,-3.06546 0.0105,-0.16808 0.003,-0.3652 -0.0145,-0.37081 -0.005,-0.002 -0.0275,0.0311 -0.049,0.0731 -0.19621,0.38229 -0.53413,0.83923 -0.89613,1.21178 -1.09429,1.12612 -2.64213,1.84046 -4.3958,2.02868 -0.37691,0.0404 -0.48572,0.0453 -1.02879,0.0453 -0.52412,0 -0.64039,-0.004 -1.00911,-0.0399 -1.83999,-0.17632 -3.8523,-0.82513 -5.99048,-1.93144 -0.42299,-0.21887 -0.61717,-0.32406 -1.3588,-0.73616 -0.75301,-0.41842 -1.07136,-0.58939 -1.34164,-0.72048 -0.6973,-0.33824 -1.1751,-0.49414 -1.76446,-0.57572 -0.149,-0.0206 -0.68843,-0.0175 -0.86143,0.005 -0.17044,0.0221 -0.39295,0.0653 -0.55948,0.10856 l -0.12631,0.0328 0.007,-0.0599 c 0.0443,-0.41538 0.17874,-0.78591 0.39618,-1.09222 0.0312,-0.044 0.10328,-0.12674 0.16014,-0.1839 0.20075,-0.20184 0.45175,-0.334427 0.7472,-0.394713 0.12403,-0.02533 0.3675,-0.03458 0.50316,-0.01923 0.59378,0.0674 1.25075,0.417513 2.01817,1.075553 0.19689,0.16884 0.35422,0.31466 0.66203,0.6136 0.44137,0.42867 0.62388,0.59562 0.65113,0.59562 0.0199,0 -0.003,-0.0405 -0.0761,-0.13126 -0.3873,-0.48503 -0.5788,-0.89288 -0.65026,-1.38485 -0.0243,-0.16752 -0.0342,-0.28545 -0.0603,-0.717765 -0.0305,-0.50508 -0.0459,-0.687284 -0.0841,-0.993716 -0.0516,-0.413945 -0.11558,-0.77325 -0.21713,-1.219673 -0.0538,-0.236367 -0.18929,-0.761907 -0.20162,-0.781839 -0.007,-0.01057 -0.0142,-0.01109 0.11624,0.0073 0.60318,0.08359 1.18964,0.375815 1.61742,0.805962 0.19167,0.192731 0.33687,0.397435 0.47184,0.66523 0.14118,0.280099 0.21588,0.49232 0.40984,1.164327 0.22417,0.776684 0.33557,1.083734 0.54483,1.501704 0.21043,0.4203 0.39577,0.68718 0.66519,0.95784 0.21084,0.21181 0.40062,0.35339 0.62826,0.46868 0.0678,0.0343 0.1248,0.0608 0.12678,0.0588 0.002,-0.002 -0.0213,-0.0563 -0.0517,-0.12079 -0.18889,-0.39971 -0.31681,-0.73732 -0.43231,-1.14096 -0.34136,-1.19297 -0.34515,-2.405299 -0.0107,-3.432945 0.23831,-0.732315 0.65757,-1.386276 1.18722,-1.851786 0.63107,-0.554656 1.41426,-0.900378 2.25951,-0.997415 0.20201,-0.0232 0.58847,-0.02327 0.78099,-3.67e-4 0.46034,0.05513 0.82175,0.162675 1.23231,0.366667 0.69778,0.346699 1.28782,0.902353 1.71623,1.616227 0.30664,0.51096 0.50395,1.071429 0.58299,1.656037 0.0219,0.16211 0.0307,0.615853 0.0152,0.785458 -0.0732,0.801074 -0.39725,1.482774 -0.96727,2.035114 -0.29943,0.29013 -0.60379,0.48642 -0.9435,0.60848 -0.86163,0.30959 -1.81567,0.0906 -2.20115,-0.50531 -0.0668,-0.10322 -0.0731,-0.10472 -0.0731,-0.0174 0,0.44828 0.51676,0.90131 1.22077,1.07023 0.22476,0.054 0.32361,0.0644 0.61039,0.0645 0.27819,3.8e-4 0.34032,-0.006 0.58085,-0.0541 0.52019,-0.10499 1.00533,-0.34509 1.4423,-0.71379 0.12383,-0.10449 0.35943,-0.34184 0.46883,-0.47233 0.6385,-0.76152 1.07404,-1.82643 1.22405,-2.992856 0.0476,-0.370045 0.0669,-0.908322 0.0457,-1.269997 -0.082,-1.396869 -0.54721,-2.626923 -1.34595,-3.558942 -0.1222,-0.142597 -0.3945,-0.416382 -0.51081,-0.513595 -0.64213,-0.5367 -1.42688,-0.888625 -2.17083,-0.97352 -0.13059,-0.01491 -0.43028,-0.01491 -0.5464,0 -0.44838,0.05756 -0.81263,0.233739 -1.10341,0.533784 -0.10548,0.108835 -0.15892,0.172807 -0.33958,0.406604 -0.31944,0.413373 -0.51984,0.565455 -0.86565,0.656949 -0.14782,0.03913 -0.3767,0.04948 -0.51561,0.02327 -0.33301,-0.0627 -0.58068,-0.271649 -0.68474,-0.577693 -0.0416,-0.1224 -0.0533,-0.213536 -0.0473,-0.370015 0.007,-0.202414 0.0578,-0.36691 0.1627,-0.53349 0.12372,-0.196475 0.27271,-0.333691 0.49679,-0.457538 0.0656,-0.03626 0.0828,-0.05557 0.0492,-0.05536 -0.009,0 -0.0645,0.0108 -0.12236,0.02393 -0.99957,0.22675 -2.38171,1.053415 -3.02076,1.806733 -0.0507,0.05976 -0.0954,0.108688 -0.0994,0.108688 -0.0164,0 -0.0767,-0.309538 -0.10275,-0.526701 -0.0206,-0.172079 -0.0283,-0.506951 -0.0162,-0.694066 0.005,-0.08392 0.008,-0.154358 0.006,-0.156524 -0.002,-0.0022 -0.0716,0.01644 -0.15424,0.0414 -0.5381,0.162221 -0.94835,0.227705 -1.42524,0.227499 -0.35756,0 -0.62195,-0.03523 -0.91819,-0.121879 -0.66297,-0.193862 -1.18817,-0.613298 -1.49204,-1.191563 -0.18631,-0.35454 -0.28986,-0.834395 -0.25915,-1.200908 0.0572,-0.682769 0.3856,-1.224591 0.82836,-1.366734 0.11526,-0.037 0.1772,-0.0439 0.34647,-0.03847 0.18304,0.0059 0.26673,0.02378 0.39683,0.0851 0.15484,0.07297 0.2412,0.16045 0.2412,0.244368 0,0.03612 -0.005,0.04867 -0.0301,0.0718 -0.0446,0.04169 -0.11888,0.06482 -0.24859,0.07738 -0.27249,0.02636 -0.42939,0.08832 -0.56352,0.222441 -0.1079,0.107909 -0.17527,0.230289 -0.21242,0.385909 -0.0274,0.114553 -0.0224,0.322488 0.0105,0.435485 0.0914,0.314706 0.32315,0.549002 0.66079,0.668086 0.37094,0.130828 0.8351,0.04911 1.39731,-0.245889 0.39151,-0.205453 0.71401,-0.424091 1.59489,-1.081195 0.97314,-0.725927 1.34649,-0.975325 1.81107,-1.209783 0.48326,-0.243878 0.85241,-0.347962 1.23594,-0.34849 0.3631,-5.22e-4 0.6651,0.09543 0.95482,0.303297 0.0413,0.02966 0.0765,0.05396 0.078,0.05396 0.002,0 0.006,-0.06094 0.009,-0.135373 0.009,-0.191916 0.0497,-0.355083 0.1273,-0.50947 0.11925,-0.237344 0.35193,-0.455204 0.61976,-0.580255 0.0968,-0.04522 0.28993,-0.110538 0.29924,-0.101229 0.003,0.0029 -1.5e-4,0.06365 -0.007,0.134749 -0.0189,0.19359 0.003,0.274138 0.11772,0.415421 0.15662,0.19439 0.55778,0.491367 1.20751,0.893918 0.46257,0.286596 0.53463,0.332457 0.67916,0.432284 0.4851,0.335034 0.86566,0.654071 1.31028,1.09841 0.30648,0.306285 0.43811,0.45165 0.65577,0.724172 0.209,0.26168 0.21899,0.272971 0.22297,0.252269 0.005,-0.02687 -0.11419,-0.259911 -0.20845,-0.407001 -0.31563,-0.492445 -0.71922,-0.994919 -1.57187,-1.957008 -0.35188,-0.397038 -0.56008,-0.637928 -0.71479,-0.826973 -0.6938,-0.847807 -0.98736,-1.471692 -1.05777,-2.248046 -0.0154,-0.170296 -0.007,-0.618679 0.0151,-0.798959 0.037,-0.301257 0.10244,-0.627305 0.18299,-0.910656 0.0649,-0.22852 0.16522,-0.507011 0.18253,-0.507011 0.007,0 0.0465,0.01329 0.0873,0.02944 0.42173,0.167528 0.68769,0.445703 0.84721,0.886114 0.048,0.132569 0.0599,0.146899 0.0683,0.08253 0.0247,-0.187459 0.068,-0.33681 0.14385,-0.495741 0.18612,-0.390021 0.51378,-0.679524 0.91468,-0.808172 l 0.11322,-0.03634 0.002,-6.670278 0.002,-6.670293 -0.0641,-0.04574 c -0.15684,-0.111918 -0.25167,-0.24365 -0.30623,-0.425383 -0.022,-0.07334 -0.0262,-0.106015 -0.0265,-0.209917 -3e-4,-0.08354 0.005,-0.144806 0.0162,-0.190755 0.0863,-0.351163 0.36866,-0.581408 0.74012,-0.60352 0.36228,-0.02158 0.67414,0.217728 0.77862,0.597397 0.0247,0.08996 0.0251,0.305111 4.6e-4,0.393778 -0.055,0.198765 -0.1874,0.367043 -0.37523,0.47689 l -0.0644,0.03766 v 6.686634 6.686612 l 0.0222,0.01923 c 0.0122,0.01057 0.0554,0.04125 0.096,0.06813 0.0995,0.06593 0.23887,0.207016 0.30941,0.313171 0.15101,0.227235 0.22065,0.518067 0.19292,0.805573 -0.0113,0.117064 -0.0428,0.26422 -0.0713,0.33311 -0.0137,0.03318 -0.0144,0.02944 -0.02,-0.09845 -0.008,-0.195175 -0.0429,-0.329542 -0.11777,-0.456385 -0.1443,-0.244736 -0.44147,-0.377908 -0.76269,-0.341766 -0.31339,0.03523 -0.59025,0.192077 -0.77326,0.437973 -0.12686,0.17045 -0.23048,0.455336 -0.29322,0.80619 -0.0834,0.466392 -0.008,1.100722 0.20905,1.768682 0.13444,0.412933 0.31085,0.820917 0.60248,1.39347 0.16027,0.314655 0.28753,0.550552 0.74096,1.37337 0.23675,0.429634 0.3604,0.658968 0.52548,0.97465 1.17977,2.255946 1.71438,4.191275 1.77752,6.434697 l 0.007,0.237314 0.1241,0.0059 c 0.47804,0.02151 0.93163,0.273374 1.25712,0.697994 0.37673,0.491492 0.5754,1.167637 0.57497,1.956905 -2.2e-4,0.393379 -0.0571,0.878529 -0.13781,1.177289 -0.0313,0.11567 -0.0335,0.093 0.0306,0.30387 0.0805,0.26373 0.13094,0.50232 0.16176,0.76398 0.0149,0.12622 0.0269,0.59193 0.0182,0.70391 z m -0.53015,-3.401419 c -0.0577,-0.42694 -0.22432,-0.756614 -0.48966,-0.968909 -0.16809,-0.134485 -0.34339,-0.201365 -0.55011,-0.209873 -0.14667,-0.0059 -0.24555,0.01036 -0.37164,0.06145 -0.092,0.03729 -0.22315,0.115346 -0.2318,0.137913 -0.003,0.0081 -0.019,0.08102 -0.0354,0.161926 -0.12006,0.595077 -0.31491,1.211649 -0.54519,1.725122 -0.40248,0.89744 -0.95209,1.61936 -1.64078,2.15525 -0.58992,0.45902 -1.30274,0.75574 -1.95915,0.81547 -0.14303,0.013 -0.26639,0.0132 -0.4258,5.9e-4 -0.069,-0.005 -0.18422,-0.0146 -0.25597,-0.0203 -0.79974,-0.0639 -1.53043,-0.48718 -1.91695,-1.11035 -0.22267,-0.35903 -0.32924,-0.76805 -0.29566,-1.13482 0.024,-0.26203 0.0861,-0.48913 0.19226,-0.70279 0.0806,-0.16232 0.17117,-0.289669 0.29104,-0.409384 0.22792,-0.227609 0.50527,-0.3536 0.77842,-0.3536 0.11391,0 0.20938,0.02166 0.31342,0.07107 0.0689,0.03274 0.0985,0.05477 0.16777,0.12464 0.10379,0.104782 0.16205,0.213932 0.203,0.380242 0.023,0.09324 0.0267,0.128822 0.0268,0.255972 2.4e-4,0.34493 -0.10241,0.49826 -0.38275,0.57184 -0.0556,0.0146 -0.10726,0.0181 -0.26825,0.0185 -0.10964,3.7e-4 -0.19935,0.004 -0.19936,0.008 0,0.004 0.015,0.0407 0.0335,0.0805 0.13124,0.28403 0.41404,0.48309 0.80725,0.56824 0.14459,0.0313 0.43767,0.0309 0.5868,-7.3e-4 0.31973,-0.0681 0.57424,-0.2026 0.79379,-0.41962 0.16835,-0.16641 0.27563,-0.32516 0.38586,-0.571 0.35978,-0.802372 0.32398,-1.565983 -0.10433,-2.22495 -0.45607,-0.701665 -1.33738,-1.196533 -2.28925,-1.285429 -0.18151,-0.01696 -0.55569,-0.0066 -0.7206,0.01953 -0.49933,0.07979 -0.92459,0.270356 -1.29585,0.58068 -0.12818,0.107139 -0.36067,0.348652 -0.46559,0.483643 -0.37882,0.487432 -0.65465,1.094636 -0.78842,1.735625 -0.0737,0.353191 -0.0981,0.621671 -0.0907,0.998321 0.006,0.28249 0.0183,0.42119 0.0617,0.67212 0.10312,0.59575 0.34372,1.16634 0.68573,1.62625 0.65772,0.88445 1.72534,1.46975 3.02143,1.65644 0.31641,0.0456 0.50884,0.0585 0.88011,0.0587 0.36428,3.7e-4 0.51381,-0.008 0.84175,-0.0492 1.83393,-0.22793 3.46079,-1.17351 4.38821,-2.55052 0.44927,-0.66708 0.73056,-1.41334 0.84357,-2.238098 0.0333,-0.242497 0.032,-0.225796 0.0335,-0.433179 7.3e-4,-0.110296 -0.004,-0.222904 -0.0126,-0.285503 z"
       style="fill:#c28f20;fill-opacity:1;stroke-width:0.00984493"
       inkscape:connector-curvature="0" />
  </g>
</svg>
